<?xml version="1.0" encoding="utf-8"?>
<!-- Generator: Adobe Illustrator 15.0.0, SVG Export Plug-In . SVG Version: 6.00 Build 0)  -->
<!DOCTYPE svg PUBLIC "-//W3C//DTD SVG 1.1//EN" "http://www.w3.org/Graphics/SVG/1.1/DTD/svg11.dtd">
<svg version="1.1" id="Capa_1" xmlns="http://www.w3.org/2000/svg" xmlns:xlink="http://www.w3.org/1999/xlink" x="0px" y="0px"
	 width="841.89px" height="595.28px" viewBox="0 0 841.89 595.28" enable-background="new 0 0 841.89 595.28" xml:space="preserve">
<g>
	<line fill="none" stroke="#000000" stroke-miterlimit="10" x1="377.594" y1="151.053" x2="396.711" y2="252.553"/>
	<line fill="none" stroke="#000000" stroke-miterlimit="10" x1="396.711" y1="252.553" x2="391.957" y2="280.326"/>
	<line fill="none" stroke="#000000" stroke-miterlimit="10" x1="475.691" y1="262.303" x2="369.994" y2="285.053"/>
	<line fill="none" stroke="#000000" stroke-miterlimit="10" x1="365.326" y1="282.49" x2="342.457" y2="185.053"/>
	<line fill="none" stroke="#000000" stroke-miterlimit="10" x1="377.594" y1="151.053" x2="351.832" y2="163.053"/>
	<path fill="none" stroke="#000000" stroke-miterlimit="10" d="M342.457,185.053c0-12.16,4.193-22,9.375-22"/>
	<line fill="none" stroke="#000000" stroke-miterlimit="10" x1="377.594" y1="151.053" x2="465.574" y2="139.845"/>
	<line fill="none" stroke="#000000" stroke-miterlimit="10" x1="472.793" y1="144.138" x2="489.996" y2="235.469"/>
	<line fill="none" stroke="#000000" stroke-miterlimit="10" x1="489.996" y1="235.469" x2="475.691" y2="262.303"/>
	<line fill="none" stroke="#000000" stroke-miterlimit="10" x1="456.32" y1="166.089" x2="475.691" y2="262.303"/>
	<path fill="none" stroke="#000000" stroke-miterlimit="10" d="M476.153,160.553"/>
	<path fill="none" stroke="#000000" stroke-miterlimit="10" d="M381.957,172.553"/>
	<path fill="none" stroke="#000000" stroke-miterlimit="10" d="M472.793,144.138c0-2.373-3.229-4.293-7.219-4.293"/>
	<ellipse fill="none" stroke="#000000" stroke-miterlimit="10" cx="487.966" cy="315.743" rx="37.491" ry="11.81"/>
	<line fill="none" stroke="#000000" stroke-miterlimit="10" x1="441.988" y1="334.25" x2="450.615" y2="314.761"/>
	<line fill="none" stroke="#000000" stroke-miterlimit="10" x1="525.457" y1="315.743" x2="531.985" y2="334.25"/>
	<line fill="none" stroke="#000000" stroke-miterlimit="10" x1="462.512" y1="343.779" x2="462.512" y2="350.809"/>
	<line fill="none" stroke="#000000" stroke-miterlimit="10" x1="513.799" y1="343.988" x2="513.799" y2="352.303"/>
	<path fill="none" stroke="#000000" stroke-miterlimit="10" d="M441.988,334.25c3.735,6.436,26.985,12.176,46.662,12.176"/>
	<path fill="none" stroke="#000000" stroke-miterlimit="10" d="M531.985,334.25c-6.528,7.521-18.981,12.176-44.019,12.176"/>
	<path fill="none" stroke="#000000" stroke-miterlimit="10" d="M455.457,350.809c0,6.354,15.224,10.244,33.193,10.244"/>
	<path fill="none" stroke="#000000" stroke-miterlimit="10" d="M520.207,350.809c0,7.661-13.736,10.244-31.557,10.244"/>
	<path fill="none" stroke="#000000" stroke-miterlimit="10" d="M455.457,350.809c0-0.556,3.154-3.089,7.055-3.089"/>
	<path fill="none" stroke="#000000" stroke-miterlimit="10" d="M520.207,350.809c0-0.556-2.867-2.089-6.408-2.089"/>
	<line fill="none" stroke="#000000" stroke-miterlimit="10" x1="455.457" y1="350.809" x2="450.789" y2="375.873"/>
	<line fill="none" stroke="#000000" stroke-miterlimit="10" x1="520.207" y1="350.809" x2="525.457" y2="375.873"/>
	<path fill="none" stroke="#000000" stroke-miterlimit="10" d="M456.32,166.089c0-2.373-3.229-4.293-7.22-4.293"/>
	<line fill="none" stroke="#000000" stroke-miterlimit="10" x1="381.957" y1="172.553" x2="449.101" y2="161.796"/>
	<path fill="none" stroke="#000000" stroke-miterlimit="10" d="M450.789,375.873c0,4.836,16.761,10.43,37.861,10.43"/>
	<path fill="none" stroke="#000000" stroke-miterlimit="10" d="M525.457,375.873c0,4.836-16.463,10.43-36.807,10.43"/>
	<line fill="none" stroke="#000000" stroke-miterlimit="10" x1="484.79" y1="396.72" x2="554.957" y2="374.471"/>
	<line fill="none" stroke="#000000" stroke-miterlimit="10" x1="484.836" y1="408.818" x2="554.957" y2="383.476"/>
	<line fill="none" stroke="#000000" stroke-miterlimit="10" x1="484.836" y1="412.163" x2="562.79" y2="384.72"/>
	<line fill="none" stroke="#000000" stroke-miterlimit="10" x1="522.832" y1="363.804" x2="554.957" y2="374.471"/>
	<line fill="none" stroke="#000000" stroke-miterlimit="10" x1="554.957" y1="374.471" x2="554.957" y2="383.476"/>
	<line fill="none" stroke="#000000" stroke-miterlimit="10" x1="554.957" y1="383.476" x2="562.79" y2="384.72"/>
	<line fill="none" stroke="#000000" stroke-miterlimit="10" x1="562.79" y1="384.72" x2="562.79" y2="421.053"/>
	<line fill="none" stroke="#000000" stroke-miterlimit="10" x1="484.836" y1="448.496" x2="562.79" y2="421.053"/>
	<line fill="none" stroke="#000000" stroke-miterlimit="10" x1="484.836" y1="412.163" x2="484.836" y2="448.496"/>
	<line fill="none" stroke="#000000" stroke-miterlimit="10" x1="484.836" y1="412.163" x2="420.207" y2="384.72"/>
	<line fill="none" stroke="#000000" stroke-miterlimit="10" x1="485.263" y1="408.818" x2="424.961" y2="383.212"/>
	<line fill="none" stroke="#000000" stroke-miterlimit="10" x1="484.836" y1="408.818" x2="484.79" y2="396.72"/>
	<line fill="none" stroke="#000000" stroke-miterlimit="10" x1="484.836" y1="396.72" x2="424.983" y2="371.544"/>
	<line fill="none" stroke="#000000" stroke-miterlimit="10" x1="420.207" y1="384.72" x2="404.957" y2="353.053"/>
	<line fill="none" stroke="#000000" stroke-miterlimit="10" x1="404.957" y1="353.053" x2="404.957" y2="309.553"/>
	<line fill="none" stroke="#000000" stroke-miterlimit="10" x1="420.207" y1="384.72" x2="424.961" y2="383.212"/>
	<line fill="none" stroke="#000000" stroke-miterlimit="10" x1="424.961" y1="382.998" x2="409.711" y2="351.331"/>
	<line fill="none" stroke="#000000" stroke-miterlimit="10" x1="404.957" y1="353.133" x2="409.711" y2="351.625"/>
	<line fill="none" stroke="#000000" stroke-miterlimit="10" x1="409.711" y1="351.625" x2="409.711" y2="308.125"/>
	<line fill="none" stroke="#000000" stroke-miterlimit="10" x1="484.836" y1="448.496" x2="358.039" y2="394.655"/>
	<line fill="none" stroke="#000000" stroke-miterlimit="10" x1="358.039" y1="341.053" x2="358.039" y2="394.655"/>
	<line fill="none" stroke="#000000" stroke-miterlimit="10" x1="358.039" y1="341.053" x2="371.623" y2="302.72"/>
	<path fill="none" stroke="#000000" stroke-miterlimit="10" d="M371.623,302.72c0-2.396,6.709-4.334,15-4.334"/>
	<path fill="none" stroke="#000000" stroke-miterlimit="10" d="M404.957,309.553c0-6.173-8.2-11.167-18.334-11.167"/>
	<path fill="none" stroke="#000000" stroke-miterlimit="10" d="M409.711,308.304c0-6.173-8.984-13.334-19.117-13.334"/>
	<path fill="none" stroke="#000000" stroke-miterlimit="10" d="M375.594,297.678c1.738-1.938,6.709-2.708,15-2.708"/>
	<line fill="none" stroke="#000000" stroke-miterlimit="10" x1="371.623" y1="302.303" x2="375.594" y2="297.678"/>
	<line fill="none" stroke="#000000" stroke-miterlimit="10" x1="485.263" y1="303.934" x2="485.263" y2="290.797"/>
	<line fill="none" stroke="#000000" stroke-miterlimit="10" x1="424.983" y1="371.544" x2="453.316" y2="362.303"/>
	<line fill="none" stroke="#000000" stroke-miterlimit="10" x1="424.983" y1="383.602" x2="424.938" y2="371.503"/>
	<path fill="none" stroke="#000000" stroke-miterlimit="10" d="M485.263,290.976c0-6.173-8.983-13.334-19.117-13.334"/>
	<path fill="none" stroke="#000000" stroke-miterlimit="10" d="M452.582,278.47c0,0,5.272-0.828,13.563-0.828"/>
	<line fill="none" stroke="#000000" stroke-miterlimit="10" x1="379.123" y1="295.92" x2="452.582" y2="278.642"/>
	<line fill="none" stroke="#000000" stroke-miterlimit="10" x1="398.623" y1="278.642" x2="398.623" y2="285.053"/>
	<line fill="none" stroke="#000000" stroke-miterlimit="10" x1="398.623" y1="285.053" x2="402.43" y2="290.438"/>
	<line fill="none" stroke="#000000" stroke-miterlimit="10" x1="398.623" y1="285.053" x2="409.711" y2="282.49"/>
	<line fill="none" stroke="#000000" stroke-miterlimit="10" x1="409.711" y1="282.49" x2="409.711" y2="276.303"/>
	<line fill="none" stroke="#000000" stroke-miterlimit="10" x1="409.711" y1="282.49" x2="414.791" y2="287.571"/>
	<line fill="none" stroke="#000000" stroke-miterlimit="10" x1="436.383" y1="270.693" x2="436.383" y2="277.105"/>
	<line fill="none" stroke="#000000" stroke-miterlimit="10" x1="436.383" y1="277.105" x2="439.724" y2="281.832"/>
	<line fill="none" stroke="#000000" stroke-miterlimit="10" x1="436.383" y1="277.105" x2="447.469" y2="274.543"/>
	<line fill="none" stroke="#000000" stroke-miterlimit="10" x1="447.469" y1="274.543" x2="447.469" y2="268.354"/>
	<line fill="none" stroke="#000000" stroke-miterlimit="10" x1="447.469" y1="274.543" x2="451.762" y2="278.834"/>
	<path fill="none" stroke="#000000" stroke-miterlimit="10" d="M365.326,282.49c0,1.416,2.088,2.563,4.668,2.563"/>
	<path fill="none" stroke="#000000" stroke-miterlimit="10" d="M462.512,350.468c1.867,3.218,14.732,6.085,24.57,6.085"/>
	<path fill="none" stroke="#000000" stroke-miterlimit="10" d="M513.799,352.303c-4.146,1.88-10.816,4.25-26.717,4.25"/>
</g>
<g>
	<line fill="none" stroke="#000000" stroke-miterlimit="10" x1="-195.271" y1="378.202" x2="-125.105" y2="355.954"/>
	<line fill="none" stroke="#000000" stroke-miterlimit="10" x1="-195.226" y1="390.302" x2="-125.105" y2="364.958"/>
	<line fill="none" stroke="#000000" stroke-miterlimit="10" x1="-195.226" y1="393.646" x2="-117.271" y2="366.202"/>
	<line fill="none" stroke="#000000" stroke-miterlimit="10" x1="-157.88" y1="345.903" x2="-125.105" y2="355.954"/>
	<line fill="none" stroke="#000000" stroke-miterlimit="10" x1="-125.105" y1="355.954" x2="-125.105" y2="364.958"/>
	<line fill="none" stroke="#000000" stroke-miterlimit="10" x1="-125.105" y1="364.958" x2="-117.271" y2="366.202"/>
	<line fill="none" stroke="#000000" stroke-miterlimit="10" x1="-117.271" y1="366.202" x2="-117.271" y2="402.536"/>
	<line fill="none" stroke="#000000" stroke-miterlimit="10" x1="-195.226" y1="429.979" x2="-117.271" y2="402.536"/>
	<line fill="none" stroke="#000000" stroke-miterlimit="10" x1="-195.226" y1="393.646" x2="-195.226" y2="429.979"/>
	<line fill="none" stroke="#000000" stroke-miterlimit="10" x1="-195.226" y1="393.646" x2="-259.854" y2="366.202"/>
	<line fill="none" stroke="#000000" stroke-miterlimit="10" x1="-194.798" y1="390.302" x2="-255.101" y2="364.694"/>
	<line fill="none" stroke="#000000" stroke-miterlimit="10" x1="-195.226" y1="390.302" x2="-195.271" y2="378.202"/>
	<line fill="none" stroke="#000000" stroke-miterlimit="10" x1="-195.226" y1="378.202" x2="-255.078" y2="353.026"/>
	<line fill="none" stroke="#000000" stroke-miterlimit="10" x1="-259.854" y1="366.202" x2="-275.104" y2="334.535"/>
	<line fill="none" stroke="#000000" stroke-miterlimit="10" x1="-275.104" y1="334.535" x2="-275.104" y2="291.036"/>
	<line fill="none" stroke="#000000" stroke-miterlimit="10" x1="-259.854" y1="366.202" x2="-255.101" y2="364.694"/>
	<line fill="none" stroke="#000000" stroke-miterlimit="10" x1="-255.101" y1="364.481" x2="-270.351" y2="332.814"/>
	<line fill="none" stroke="#000000" stroke-miterlimit="10" x1="-275.104" y1="334.615" x2="-270.351" y2="333.107"/>
	<line fill="none" stroke="#000000" stroke-miterlimit="10" x1="-270.351" y1="333.107" x2="-270.351" y2="289.608"/>
	<line fill="none" stroke="#000000" stroke-miterlimit="10" x1="-195.226" y1="429.979" x2="-322.021" y2="376.138"/>
	<line fill="none" stroke="#000000" stroke-miterlimit="10" x1="-322.021" y1="322.535" x2="-322.021" y2="376.138"/>
	<line fill="none" stroke="#000000" stroke-miterlimit="10" x1="-322.021" y1="322.535" x2="-308.438" y2="284.203"/>
	<path fill="none" stroke="#000000" stroke-miterlimit="10" d="M-308.438,284.203c0-2.396,6.709-4.334,15-4.334"/>
	<path fill="none" stroke="#000000" stroke-miterlimit="10" d="M-275.104,291.036c0-6.173-8.2-11.167-18.333-11.167"/>
	<path fill="none" stroke="#000000" stroke-miterlimit="10" d="M-270.351,289.787c0-6.173-8.983-13.334-19.117-13.334"/>
	<path fill="none" stroke="#000000" stroke-miterlimit="10" d="M-304.468,279.161c1.738-1.938,6.709-2.708,15-2.708"/>
	<line fill="none" stroke="#000000" stroke-miterlimit="10" x1="-308.438" y1="283.786" x2="-304.468" y2="279.161"/>
	<line fill="none" stroke="#000000" stroke-miterlimit="10" x1="-255.078" y1="353.026" x2="-227.378" y2="344.024"/>
	<line fill="none" stroke="#000000" stroke-miterlimit="10" x1="-255.078" y1="365.085" x2="-255.123" y2="352.985"/>
	<line fill="none" stroke="#000000" stroke-miterlimit="10" x1="-195.271" y1="285.693" x2="-194.798" y2="272.28"/>
	<path fill="none" stroke="#000000" stroke-miterlimit="10" d="M-194.798,272.458c0-6.173-8.984-13.334-19.117-13.334"/>
	<path fill="none" stroke="#000000" stroke-miterlimit="10" d="M-227.48,259.953c0,0,5.273-0.828,13.564-0.828"/>
	<line fill="none" stroke="#000000" stroke-miterlimit="10" x1="-300.938" y1="277.403" x2="-227.48" y2="260.125"/>
	<g>
		<g>
			<path d="M-195.101,393.646c-0.002-3.156-0.004-6.313-0.006-9.47c-0.004-7.271-0.008-14.542-0.013-21.813
				c-0.005-8.087-0.011-16.175-0.015-24.262c-0.004-5.605-0.008-11.211-0.011-16.815c-0.001-0.842-0.001-1.684-0.001-2.525
				c0-0.161-0.25-0.162-0.25-0.002c0.002,3.157,0.004,6.313,0.006,9.471c0.004,7.271,0.008,14.541,0.013,21.813
				c0.005,8.087,0.011,16.174,0.015,24.261c0.004,5.605,0.008,11.211,0.011,16.816c0.001,0.842,0.001,1.683,0.001,2.524
				C-195.351,393.806-195.101,393.808-195.101,393.646L-195.101,393.646z"/>
		</g>
	</g>
	<g>
		<g>
			<path d="M-197.242,318.023c-2.391-1.008-4.781-2.016-7.172-3.023c-5.898-2.486-11.795-4.973-17.693-7.458
				c-7.49-3.157-14.98-6.314-22.471-9.472c-7.169-3.022-14.339-6.044-21.509-9.066c-4.936-2.081-9.872-4.161-14.808-6.242
				c-1.105-0.466-2.209-0.931-3.314-1.397c-0.146-0.062-0.273,0.154-0.125,0.217c2.391,1.008,4.782,2.016,7.173,3.023
				c5.897,2.486,11.795,4.972,17.692,7.458c7.49,3.157,14.98,6.314,22.47,9.473c7.17,3.021,14.34,6.044,21.51,9.066
				c4.936,2.08,9.872,4.16,14.808,6.241c1.104,0.466,2.21,0.931,3.313,1.397C-197.22,318.301-197.093,318.086-197.242,318.023
				L-197.242,318.023z"/>
		</g>
	</g>
	<path fill="none" stroke="#000000" stroke-miterlimit="10" d="M-282.672,277.596"/>
	<path fill="none" stroke="#000000" stroke-miterlimit="10" d="M-197.722,313.668"/>
	<g>
		<g>
			<path d="M-120.554,288.564c-2.623-0.862-5.244-1.725-7.867-2.587c-6.349-2.088-12.697-4.175-19.047-6.263
				c-7.799-2.565-15.599-5.13-23.398-7.695c-6.975-2.294-13.949-4.587-20.924-6.881c-3.874-1.274-7.748-2.548-11.621-3.822
				c-0.22-0.072-0.439-0.144-0.658-0.216c-0.153-0.05-0.219,0.191-0.066,0.241c2.623,0.862,5.244,1.725,7.867,2.587
				c6.349,2.088,12.697,4.175,19.047,6.263c7.799,2.565,15.599,5.13,23.398,7.695c6.975,2.294,13.949,4.587,20.924,6.881
				c3.874,1.274,7.748,2.548,11.621,3.822c0.22,0.072,0.439,0.144,0.658,0.216C-120.467,288.856-120.402,288.615-120.554,288.564
				L-120.554,288.564z"/>
		</g>
	</g>
	<g>
		<g>
			<path d="M-119.078,289.493c0.162,0,0.164-0.25,0.002-0.25C-119.237,289.243-119.238,289.493-119.078,289.493L-119.078,289.493z"
				/>
		</g>
	</g>
	<g>
		<g>
			<path d="M-117.146,366.203c0-3.231,0-6.462,0-9.693c0-7.366,0-14.732,0-22.099c0-8.013,0-16.024,0-24.036
				c0-5.168,0-10.336,0-15.503c0-0.493,0-0.985,0-1.478c0-0.162-0.25-0.163-0.25-0.002c0,3.231,0,6.461,0,9.693
				c0,7.366,0,14.733,0,22.099c0,8.013,0,16.024,0,24.037c0,5.167,0,10.335,0,15.503c0,0.492,0,0.985,0,1.478
				C-117.396,366.362-117.146,366.364-117.146,366.203L-117.146,366.203z"/>
		</g>
	</g>
	<g>
		<g>
			<path d="M-192.062,318.252c2.834-1.026,5.67-2.053,8.504-3.079c6.653-2.409,13.307-4.817,19.959-7.227
				c7.695-2.786,15.389-5.572,23.084-8.358c5.959-2.157,11.918-4.315,17.876-6.473c1.659-0.601,3.319-1.202,4.979-1.803
				c0.15-0.054,0.086-0.296-0.064-0.241c-2.836,1.026-5.67,2.053-8.505,3.079c-6.653,2.409-13.306,4.818-19.96,7.227
				c-7.693,2.786-15.389,5.572-23.082,8.358c-5.959,2.157-11.918,4.315-17.877,6.473c-1.66,0.601-3.319,1.202-4.979,1.803
				C-192.277,318.064-192.214,318.307-192.062,318.252L-192.062,318.252z"/>
		</g>
	</g>
	<g>
		<g>
			<path d="M-117.146,293.394c-0.035-2.284-1.308-4.519-3.703-4.926c-0.157-0.027-0.225,0.214-0.066,0.241
				c2.286,0.389,3.485,2.501,3.52,4.683C-117.394,293.553-117.144,293.555-117.146,293.394L-117.146,293.394z"/>
		</g>
	</g>
	<path fill="none" stroke="#000000" stroke-miterlimit="10" d="M-192.513,313.668"/>
	<g>
		<g>
			<path d="M-197.367,318.24c0.709,0.343,1.421,0.625,2.217,0.652c1.043,0.035,2.105-0.341,3.088-0.641
				c0.153-0.047,0.09-0.289-0.064-0.241c-0.939,0.286-1.904,0.6-2.895,0.632c-0.791,0.025-1.522-0.281-2.221-0.619
				C-197.386,317.953-197.511,318.169-197.367,318.24L-197.367,318.24z"/>
		</g>
	</g>
	<ellipse fill="none" stroke="#000000" stroke-miterlimit="10" cx="-192.378" cy="297.465" rx="37.49" ry="11.81"/>
	<line fill="none" stroke="#000000" stroke-miterlimit="10" x1="-239.041" y1="314.756" x2="-229.73" y2="296.483"/>
	<line fill="none" stroke="#000000" stroke-miterlimit="10" x1="-154.888" y1="297.465" x2="-148.359" y2="315.973"/>
	<line fill="none" stroke="#000000" stroke-miterlimit="10" x1="-217.833" y1="323.766" x2="-217.833" y2="332.531"/>
	<line fill="none" stroke="#000000" stroke-miterlimit="10" x1="-166.546" y1="324.578" x2="-166.546" y2="334.775"/>
	<path fill="none" stroke="#000000" stroke-miterlimit="10" d="M-239.041,314.756c3.736,6.436,26.986,11.52,46.662,11.52"/>
	<path fill="none" stroke="#000000" stroke-miterlimit="10" d="M-217.833,332.531c0,4.832,11.008,7.66,25.455,7.66"/>
	<path fill="none" stroke="#000000" stroke-miterlimit="10" d="M-148.359,315.973c-6.529,7.52-18.982,10.303-44.02,10.303"/>
	<path fill="none" stroke="#000000" stroke-miterlimit="10" d="M-166.546,334.775c0,3.592-11.932,5.416-25.832,5.416"/>
	<path fill="none" stroke="#000000" stroke-miterlimit="10" d="M-224.888,332.531c0,6.354,14.541,11.493,32.51,11.493"/>
	<path fill="none" stroke="#000000" stroke-miterlimit="10" d="M-160.138,332.531c0,7.66-14.42,11.493-32.24,11.493"/>
	<path fill="none" stroke="#000000" stroke-miterlimit="10" d="M-224.888,332.531c0-0.557,3.156-3.09,7.055-3.09"/>
	<path fill="none" stroke="#000000" stroke-miterlimit="10" d="M-160.138,332.531c0-0.557-2.865-2.09-6.408-2.09"/>
	<line fill="none" stroke="#000000" stroke-miterlimit="10" x1="-224.888" y1="332.531" x2="-229.847" y2="357.552"/>
	<line fill="none" stroke="#000000" stroke-miterlimit="10" x1="-160.138" y1="332.531" x2="-155.179" y2="357.552"/>
	<path fill="none" stroke="#000000" stroke-miterlimit="10" d="M-229.847,357.552c0,4.836,16.762,10.43,37.861,10.43"/>
	<path fill="none" stroke="#000000" stroke-miterlimit="10" d="M-155.179,357.552c0,4.836-16.463,10.43-36.807,10.43"/>
</g>
<g>
	<line fill="none" stroke="#000000" stroke-miterlimit="10" x1="1350.183" y1="243.052" x2="1369.3" y2="344.552"/>
	<line fill="none" stroke="#000000" stroke-miterlimit="10" x1="1369.3" y1="344.552" x2="1364.546" y2="372.324"/>
	<line fill="none" stroke="#000000" stroke-miterlimit="10" x1="1448.28" y1="354.302" x2="1342.583" y2="377.052"/>
	<line fill="none" stroke="#000000" stroke-miterlimit="10" x1="1337.915" y1="374.489" x2="1315.046" y2="277.052"/>
	<line fill="none" stroke="#000000" stroke-miterlimit="10" x1="1350.183" y1="243.052" x2="1324.421" y2="255.052"/>
	<path fill="none" stroke="#000000" stroke-miterlimit="10" d="M1315.046,277.052c0-12.16,4.193-22,9.375-22"/>
	<line fill="none" stroke="#000000" stroke-miterlimit="10" x1="1350.183" y1="243.052" x2="1438.163" y2="231.844"/>
	<line fill="none" stroke="#000000" stroke-miterlimit="10" x1="1445.382" y1="236.137" x2="1462.585" y2="327.469"/>
	<line fill="none" stroke="#000000" stroke-miterlimit="10" x1="1462.585" y1="327.469" x2="1448.28" y2="354.302"/>
	<line fill="none" stroke="#000000" stroke-miterlimit="10" x1="1428.909" y1="258.088" x2="1448.28" y2="354.302"/>
	<path fill="none" stroke="#000000" stroke-miterlimit="10" d="M1448.742,252.552"/>
	<path fill="none" stroke="#000000" stroke-miterlimit="10" d="M1354.546,264.552"/>
	<path fill="none" stroke="#000000" stroke-miterlimit="10" d="M1445.382,236.137c0-2.373-3.229-4.293-7.219-4.293"/>
	<g>
		<path fill="none" stroke="#000000" stroke-miterlimit="10" d="M1472.948,417.833c0.132,0.068,0.266,0.138,0.377,0.249
			c0.57,0.57,0.588,1.553,0,2.121c-0.191,0.186-0.406,0.35-0.637,0.484c-0.942,0.555-1.833-0.029-2.132-0.818
			c-0.064-0.013-0.123-0.01-0.19-0.03c-4.165-1.308-8.556,0.518-12.646-0.714c-1.236-0.373-1.885-1.07-1.998-1.842
			c-18.375,0.761-32.563,5.709-32.563,11.705c0,6.522,16.785,11.81,37.491,11.81c20.705,0,37.49-5.287,37.49-11.81
			C1498.141,423.823,1487.609,419.437,1472.948,417.833z"/>
		<line fill="none" stroke="#000000" stroke-miterlimit="10" x1="1414.672" y1="447.495" x2="1423.299" y2="428.006"/>
		<line fill="none" stroke="#000000" stroke-miterlimit="10" x1="1498.141" y1="428.988" x2="1504.669" y2="447.495"/>
		<path fill="none" stroke="#000000" stroke-miterlimit="10" d="M1414.672,447.495c3.735,6.436,26.985,12.176,46.662,12.176"/>
		<path fill="none" stroke="#000000" stroke-miterlimit="10" d="M1504.669,447.495c-6.528,7.521-18.981,12.176-44.019,12.176"/>
	</g>
	<line fill="none" stroke="#000000" stroke-miterlimit="10" x1="1425.905" y1="454.302" x2="1423.378" y2="467.872"/>
	<line fill="none" stroke="#000000" stroke-miterlimit="10" x1="1495.421" y1="454.229" x2="1498.046" y2="467.872"/>
	<path fill="none" stroke="#000000" stroke-miterlimit="10" d="M1428.909,258.088c0-2.373-3.229-4.293-7.22-4.293"/>
	<line fill="none" stroke="#000000" stroke-miterlimit="10" x1="1354.546" y1="264.552" x2="1421.689" y2="253.795"/>
	<path fill="none" stroke="#000000" stroke-miterlimit="10" d="M1423.378,467.872c0,4.836,16.761,10.43,37.861,10.43"/>
	<path fill="none" stroke="#000000" stroke-miterlimit="10" d="M1498.046,467.872c0,4.836-16.463,10.43-36.807,10.43"/>
	<line fill="none" stroke="#000000" stroke-miterlimit="10" x1="1457.379" y1="488.719" x2="1527.546" y2="466.47"/>
	<line fill="none" stroke="#000000" stroke-miterlimit="10" x1="1457.425" y1="500.817" x2="1527.546" y2="475.475"/>
	<line fill="none" stroke="#000000" stroke-miterlimit="10" x1="1457.425" y1="504.162" x2="1535.379" y2="476.719"/>
	<line fill="none" stroke="#000000" stroke-miterlimit="10" x1="1495.421" y1="455.803" x2="1527.546" y2="466.47"/>
	<line fill="none" stroke="#000000" stroke-miterlimit="10" x1="1527.546" y1="466.47" x2="1527.546" y2="475.475"/>
	<line fill="none" stroke="#000000" stroke-miterlimit="10" x1="1527.546" y1="475.475" x2="1535.379" y2="476.719"/>
	<line fill="none" stroke="#000000" stroke-miterlimit="10" x1="1535.379" y1="476.719" x2="1535.379" y2="513.052"/>
	<line fill="none" stroke="#000000" stroke-miterlimit="10" x1="1457.425" y1="540.495" x2="1535.379" y2="513.052"/>
	<line fill="none" stroke="#000000" stroke-miterlimit="10" x1="1457.425" y1="504.162" x2="1457.425" y2="540.495"/>
	<line fill="none" stroke="#000000" stroke-miterlimit="10" x1="1457.425" y1="504.162" x2="1392.796" y2="476.719"/>
	<line fill="none" stroke="#000000" stroke-miterlimit="10" x1="1457.852" y1="500.817" x2="1397.55" y2="475.211"/>
	<line fill="none" stroke="#000000" stroke-miterlimit="10" x1="1457.425" y1="500.817" x2="1457.379" y2="488.719"/>
	<line fill="none" stroke="#000000" stroke-miterlimit="10" x1="1457.425" y1="488.719" x2="1397.572" y2="463.543"/>
	<line fill="none" stroke="#000000" stroke-miterlimit="10" x1="1392.796" y1="476.719" x2="1377.546" y2="445.052"/>
	<line fill="none" stroke="#000000" stroke-miterlimit="10" x1="1377.546" y1="445.052" x2="1377.546" y2="401.552"/>
	<line fill="none" stroke="#000000" stroke-miterlimit="10" x1="1392.796" y1="476.719" x2="1397.55" y2="475.211"/>
	<line fill="none" stroke="#000000" stroke-miterlimit="10" x1="1397.55" y1="474.997" x2="1382.3" y2="443.33"/>
	<line fill="none" stroke="#000000" stroke-miterlimit="10" x1="1377.546" y1="445.132" x2="1382.3" y2="443.624"/>
	<line fill="none" stroke="#000000" stroke-miterlimit="10" x1="1382.3" y1="443.624" x2="1382.3" y2="400.124"/>
	<line fill="none" stroke="#000000" stroke-miterlimit="10" x1="1457.425" y1="540.495" x2="1330.628" y2="486.654"/>
	<line fill="none" stroke="#000000" stroke-miterlimit="10" x1="1330.628" y1="433.052" x2="1330.628" y2="486.654"/>
	<line fill="none" stroke="#000000" stroke-miterlimit="10" x1="1330.628" y1="433.052" x2="1344.212" y2="394.719"/>
	<path fill="none" stroke="#000000" stroke-miterlimit="10" d="M1344.212,394.719c0-2.396,6.709-4.334,15-4.334"/>
	<path fill="none" stroke="#000000" stroke-miterlimit="10" d="M1377.546,401.552c0-6.173-8.2-11.167-18.334-11.167"/>
	<path fill="none" stroke="#000000" stroke-miterlimit="10" d="M1382.3,400.303c0-6.173-8.984-13.334-19.117-13.334"/>
	<path fill="none" stroke="#000000" stroke-miterlimit="10" d="M1348.183,389.677c1.738-1.938,6.709-2.708,15-2.708"/>
	<line fill="none" stroke="#000000" stroke-miterlimit="10" x1="1344.212" y1="394.302" x2="1348.183" y2="389.677"/>
	<path fill="none" stroke="#000000" stroke-miterlimit="10" d="M1457.852,413.953c0-10.387,0-20.771,0-31.157"/>
	<line fill="none" stroke="#000000" stroke-miterlimit="10" x1="1397.572" y1="463.543" x2="1425.905" y2="454.302"/>
	<line fill="none" stroke="#000000" stroke-miterlimit="10" x1="1397.572" y1="475.601" x2="1397.526" y2="463.502"/>
	<path fill="none" stroke="#000000" stroke-miterlimit="10" d="M1457.852,382.975c0-6.173-8.983-13.334-19.117-13.334"/>
	<path fill="none" stroke="#000000" stroke-miterlimit="10" d="M1425.171,370.469c0,0,5.272-0.828,13.563-0.828"/>
	<line fill="none" stroke="#000000" stroke-miterlimit="10" x1="1351.712" y1="387.919" x2="1425.171" y2="370.641"/>
	<line fill="none" stroke="#000000" stroke-miterlimit="10" x1="1371.212" y1="370.641" x2="1371.212" y2="377.052"/>
	<line fill="none" stroke="#000000" stroke-miterlimit="10" x1="1371.212" y1="377.052" x2="1375.019" y2="382.438"/>
	<line fill="none" stroke="#000000" stroke-miterlimit="10" x1="1371.212" y1="377.052" x2="1382.3" y2="374.489"/>
	<line fill="none" stroke="#000000" stroke-miterlimit="10" x1="1382.3" y1="374.489" x2="1382.3" y2="368.301"/>
	<line fill="none" stroke="#000000" stroke-miterlimit="10" x1="1382.3" y1="374.489" x2="1387.38" y2="379.57"/>
	<line fill="none" stroke="#000000" stroke-miterlimit="10" x1="1408.972" y1="362.693" x2="1408.972" y2="369.104"/>
	<line fill="none" stroke="#000000" stroke-miterlimit="10" x1="1408.972" y1="369.104" x2="1412.313" y2="373.831"/>
	<line fill="none" stroke="#000000" stroke-miterlimit="10" x1="1408.972" y1="369.104" x2="1420.058" y2="366.541"/>
	<line fill="none" stroke="#000000" stroke-miterlimit="10" x1="1420.058" y1="366.541" x2="1420.058" y2="360.354"/>
	<line fill="none" stroke="#000000" stroke-miterlimit="10" x1="1420.058" y1="366.541" x2="1424.351" y2="370.834"/>
	<path fill="none" stroke="#000000" stroke-miterlimit="10" d="M1337.915,374.489c0,1.417,2.088,2.563,4.668,2.563"/>
	<g>
		<g>
			<path fill="#FFFFFF" d="M1464.974,419.127c3.556,0,7.111,0,10.667,0c0.412,0,2.204-0.803,1.248-0.803c-3.556,0-7.111,0-10.667,0
				C1465.81,418.324,1464.018,419.127,1464.974,419.127L1464.974,419.127z"/>
		</g>
	</g>
	<g>
		<g>
			<path fill="#FFFFFF" d="M1478.979,417.363c-4.299-1.724-11.699-1.123-13.851,3.607c-2.271,4.993,11.873,1.258,13.451,0.024
				c0.87-0.681,0.669-1.421-0.423-1.577c-2.999-0.426-5.16,1.145-8.018,1.225c0.464,0.421,0.928,0.842,1.391,1.262
				c0.691-1.125,2.164-1.203,3.284-1.48c-0.199-0.743-0.398-1.486-0.598-2.229c-1.285,0.378-2.595,0.604-3.929,0.679
				c-0.87,0.398-1.155,0.071-0.858-0.984c4.416-1.809,0.428-1.137-0.798-1.227c-2.97-0.215-5.995-0.4-8.825,0.707
				c-1.092,0.428-3.66,2.098-2.099,3.453c1.662,1.442,4.883,0.642,6.656-0.05c0.315-0.123,2.545-1.267,1.545-1.884
				c-4.375-2.697-9.498-3.262-14.437-2.912c-1.708,0.121-5.899,2.924-2.248,2.666c3.676-0.261,8.335,0.264,11.563,2.254
				c0.515-0.628,1.029-1.256,1.545-1.884c1.106-0.431,3.899,0.404,5.303,0.372c1.682-0.04,3.39-0.256,4.997-0.754
				c3.421-1.06,3.804-3.656-0.168-3.697c-2.961-0.03-8.463,1.563-9.555,4.725c-1.371,3.974,10.946,1.006,11.904,0.766
				c3.262-0.819,2.645-3.031-0.598-2.229c-2.723,0.673-6.136,1.28-7.716,3.853c-0.634,1.031,0.537,1.286,1.391,1.262
				c2.198-0.063,4.771-1.566,6.816-1.276c-0.142-0.525-0.282-1.051-0.423-1.576c-0.767,0.6-2.109,0.546-3.042,0.679
				c2.502-0.356,0.398-2.547,3.309-1.379C1475.965,420.322,1480.973,418.162,1478.979,417.363L1478.979,417.363z"/>
		</g>
	</g>
	<g>
		<g>
			<path fill="#FFFFFF" d="M1475.984,420.206c-0.149,0.103-0.347,0.127-0.114,0.085c0.521-0.094,1.058-0.082,1.586-0.084
				c0.983-0.004,1.999,0.185,2.921,0.52c1.119-0.816,2.238-1.635,3.357-2.452c-0.972,0.071-1.941,0.083-2.916,0.083
				c-1.185,0.002-2.829,0.465-3.645,1.385c-0.862,0.972,0.743,1.186,1.371,1.185c0.974-0.001,1.943-0.012,2.916-0.083
				c1.136-0.083,2.338-0.371,3.273-1.055c0.551-0.402,0.933-1.089,0.084-1.398c-3.998-1.455-9.571-1.064-13.107,1.355
				c-0.912,0.624-0.65,1.385,0.401,1.497C1473.428,421.385,1474.902,420.946,1475.984,420.206L1475.984,420.206z"/>
		</g>
	</g>
	<g>
		<g>
			<path fill="#FFFFFF" d="M1454.554,420.523c1.914-0.008,3.688,0.911,5.552,1.254c1.316,0.241,2.875-0.106,3.872-1.038
				c0.826-0.772,0.625-1.848-0.554-2.063c-2.299-0.423-4.401-1.424-6.782-1.414c-1.255,0.006-2.875,0.389-3.605,1.527
				C1452.34,419.873,1453.62,420.527,1454.554,420.523L1454.554,420.523z"/>
		</g>
	</g>
	<g>
		<g>
			<path fill="#FFFFFF" d="M1480.767,419.152c1.37,0.715,1.294,2.659,2.75,3.334c0.838,0.388,1.958,0.124,2.802-0.103
				c0.249-0.066,2.944-0.913,2.518-1.558c-0.056-0.084-0.11-0.167-0.166-0.25c-1.506,0.611-3.013,1.224-4.519,1.835
				c0.542,0.015,0.875,0.882,0.987,1.282c0.14,0.499-0.441,1.296-0.573,1.771c-0.305,1.104,5.023,0.382,5.398-0.977
				c0.295-1.069,0.965-1.83,0.394-2.945c-0.493-0.963-1.654-1.308-2.646-1.334c-0.458-0.013-5.156,0.878-4.519,1.835
				c0.056,0.083,0.111,0.167,0.166,0.25c1.773-0.553,3.547-1.106,5.319-1.66c-1.396-0.646-1.345-2.601-2.75-3.334
				c-0.989-0.516-2.563-0.018-3.521,0.327C1482.233,417.688,1479.893,418.697,1480.767,419.152L1480.767,419.152z"/>
		</g>
	</g>
	<g>
		<g>
			<path fill="#FFFFFF" d="M1484.466,422.69c0.069,0.069,0.128,0.147,0.177,0.232c-0.063-0.104-0.126-0.209-0.188-0.313
				c0.112,0.22,0.179,0.445,0.239,0.684c0.281,1.102,2.371,0.736,3.081,0.546c0.732-0.196,2.677-0.909,2.396-2.013
				c-0.116-0.457-0.292-0.87-0.606-1.231C1488.381,419.234,1483.147,421.175,1484.466,422.69L1484.466,422.69z"/>
		</g>
	</g>
	<g>
		<g>
			<path fill="#FFFFFF" d="M1484.487,422.355c0.052,0.052,0.096,0.11,0.13,0.175c-0.07-0.132-0.141-0.265-0.211-0.396
				c0.082,0.179,0.113,0.351,0.128,0.545c-0.005-0.149-0.01-0.299-0.016-0.448c0.023,0.945-0.149,1.814,0.469,2.625
				c0.777,1.018,2.706,0.635,3.666,0.207c0.854-0.382,2.183-1.426,1.389-2.467c-0.052-0.06-0.096-0.124-0.13-0.195
				c0.07,0.133,0.141,0.265,0.211,0.396c-0.081-0.189-0.113-0.373-0.128-0.578c0.005,0.149,0.01,0.299,0.016,0.449
				c-0.022-0.905,0.178-1.82-0.469-2.572c-0.846-0.982-2.649-0.66-3.666-0.207C1485.081,420.244,1483.627,421.355,1484.487,422.355
				L1484.487,422.355z"/>
		</g>
	</g>
	<g>
		<g>
			<path fill="#FFFFFF" d="M1486.699,423.096c2.147,0.011,4.21,0.15,6.255,0.858c2.212,0.766,1.562,2.885,2.399,4.595
				c0.691,1.41-0.45,1.964,0.897,3.137c1.265,1.101,3.35,1.852,4.819,2.726c1.443,0.858,6.117-1.37,5.137-1.953
				c-1.616-0.96-3.166-1.832-4.819-2.726c-0.556-0.3-0.403-2.082-0.558-2.651c-0.301-1.103-0.564-1.965-0.703-3.13
				c-0.432-3.617-8.806-3.333-11.133-3.346C1487.347,420.597,1483.036,423.075,1486.699,423.096L1486.699,423.096z"/>
		</g>
	</g>
	<g>
		<g>
			<path fill="#FFFFFF" d="M1448.757,415.248c-1.396,0.316-2.948,1.523-2.901,3.097c0.04,1.325,0.755,2.501,2.082,2.906
				c1.328,0.406,2.951,0.049,3.872-1.037c0.803-0.946,0.528-2.3-0.718-2.681c-0.22-0.072-0.129-0.02,0.27,0.16
				c-0.174-0.124-0.114-0.057,0.179,0.201c-0.093-0.088-0.16-0.201-0.223-0.313c0.078,0.16,0.155,0.318,0.232,0.479
				c-0.102-0.211-0.159-0.421-0.181-0.653c0.013,0.177,0.024,0.354,0.037,0.53c-0.008-0.248,0.149-0.667-0.079-0.008
				c0.098-0.206,0.03-0.111-0.201,0.282c-0.119,0.11-0.239,0.221-0.358,0.331c-1.142,0.445-1.474,0.61-0.995,0.494
				c1.092-0.247,2.579-1.325,2.23-2.629C1451.638,415.047,1449.848,415,1448.757,415.248L1448.757,415.248z"/>
		</g>
	</g>
	<g>
		<g>
			<path fill="#FFFFFF" d="M1455.735,416.248c2.226,0,5.765-3.377,2.059-3.377C1455.568,412.871,1452.029,416.248,1455.735,416.248
				L1455.735,416.248z"/>
		</g>
	</g>
	<g>
		<path fill="none" stroke="#000000" stroke-miterlimit="10" d="M1556.563,371.085c-0.086,1.544-7.769,6.157-28.228,10.086"/>
		<path fill="none" stroke="#000000" stroke-miterlimit="10" d="M1493.696,399.646c9.709-7.776,21.725-14.111,33.819-18.318"/>
		<path fill="none" stroke="#000000" stroke-miterlimit="10" d="M1450.725,414.49c0.035,0.181,6.798-0.967,15.122-2.564"/>
		<path fill="none" stroke="#000000" stroke-miterlimit="10" d="M1465.847,411.926c4.356-1.176,22.343-6.497,27.85-12.279"/>
		<path fill="none" stroke="#000000" stroke-miterlimit="10" d="M1448.96,422.975c-1.899-3.708-3.201-8.719,1.765-8.484"/>
		<path fill="none" stroke="#000000" stroke-miterlimit="10" d="M1448.96,422.975c4.563,6.082,16.619,14.98,43.064,1.782"/>
		<path fill="none" stroke="#000000" stroke-miterlimit="10" d="M1489.184,415.251c3.205,16.694,16.069,26.02,22.614,20.058"/>
		<path fill="none" stroke="#000000" stroke-miterlimit="10" d="M1503.738,423.656c5.79,12.042,14.682,22.554,28.562,17.936"/>
		<path fill="none" stroke="#000000" stroke-miterlimit="10" d="M1537.537,422.909c1.81,9.424-1.763,17.337-5.237,18.683"/>
		<path fill="none" stroke="#000000" stroke-miterlimit="10" d="M1524.626,422.843c2.525,1.663,15.41,0.717,20.089-1.879"/>
		<path fill="none" stroke="#000000" stroke-miterlimit="10" d="M1561.234,398.614c0.515,5.438-5.451,17.679-16.52,22.35"/>
		<path fill="none" stroke="#000000" stroke-miterlimit="10" d="M1561.241,401.413c7.188-2.78,10.828-4.37,18.186-7.819"/>
		<path fill="none" stroke="#000000" stroke-miterlimit="10" d="M1531.485,428.511c-0.563-2.933-1.752-5.165-2.656-4.991"/>
		<path fill="none" stroke="#000000" stroke-miterlimit="10" d="M1550.372,374.861c-0.481-2.51,0.556-4.816,2.32-5.154"/>
		<path fill="none" stroke="#000000" stroke-miterlimit="10" d="M1567.855,398.79c6.389,10.294,21.199,21.084,22.707,16.34"/>
		<path fill="none" stroke="#000000" stroke-miterlimit="10" d="M1590.563,415.13c2.193-11.113-32.563-46.951-37.87-45.423"/>
		<path fill="none" stroke="#000000" stroke-miterlimit="10" d="M1549.025,375.655c-6.733-8.406-2.479-13.424,1.922-15.032"/>
		<path fill="none" stroke="#000000" stroke-miterlimit="10" d="M1597.441,403.891c-11.809-21.723-29.785-45.076-46.494-43.268"/>
		<path fill="none" stroke="#000000" stroke-miterlimit="10" d="M1566.183,399.463c2.489,3.578,13.787,23.473,30.044,21.962"/>
		<path fill="none" stroke="#000000" stroke-miterlimit="10" d="M1597.441,403.891c5.871,12.017,1.228,17.064-1.215,17.534"/>
	</g>
	<path fill="none" stroke="#000000" stroke-miterlimit="10" d="M1450.725,414.49c-0.377,6.75,8.54,8.069,18.116,8.069"/>
	<path fill="none" stroke="#000000" stroke-miterlimit="10" d="M1466.794,411.664c4.193,6.553,2.925,10.12,2.047,10.896"/>
</g>
</svg>
