<?xml version="1.0" encoding="utf-8"?>
<!-- Generator: Adobe Illustrator 15.0.0, SVG Export Plug-In . SVG Version: 6.00 Build 0)  -->
<!DOCTYPE svg PUBLIC "-//W3C//DTD SVG 1.1//EN" "http://www.w3.org/Graphics/SVG/1.1/DTD/svg11.dtd">
<svg version="1.1" id="Capa_1" xmlns="http://www.w3.org/2000/svg" xmlns:xlink="http://www.w3.org/1999/xlink" x="0px" y="0px"
	 viewBox="320 110 230 350" enable-background="new 320 110 230 350" xml:space="preserve">
<g>
	<line fill="none" stroke="#000000" stroke-miterlimit="10" x1="-195.271" y1="378.202" x2="-125.105" y2="355.954"/>
	<line fill="none" stroke="#000000" stroke-miterlimit="10" x1="-195.226" y1="390.302" x2="-125.105" y2="364.958"/>
	<line fill="none" stroke="#000000" stroke-miterlimit="10" x1="-195.226" y1="393.646" x2="-117.271" y2="366.202"/>
	<line fill="none" stroke="#000000" stroke-miterlimit="10" x1="-157.88" y1="345.903" x2="-125.105" y2="355.954"/>
	<line fill="none" stroke="#000000" stroke-miterlimit="10" x1="-125.105" y1="355.954" x2="-125.105" y2="364.958"/>
	<line fill="none" stroke="#000000" stroke-miterlimit="10" x1="-125.105" y1="364.958" x2="-117.271" y2="366.202"/>
	<line fill="none" stroke="#000000" stroke-miterlimit="10" x1="-117.271" y1="366.202" x2="-117.271" y2="402.536"/>
	<line fill="none" stroke="#000000" stroke-miterlimit="10" x1="-195.226" y1="429.979" x2="-117.271" y2="402.536"/>
	<line fill="none" stroke="#000000" stroke-miterlimit="10" x1="-195.226" y1="393.646" x2="-195.226" y2="429.979"/>
	<line fill="none" stroke="#000000" stroke-miterlimit="10" x1="-195.226" y1="393.646" x2="-259.854" y2="366.202"/>
	<line fill="none" stroke="#000000" stroke-miterlimit="10" x1="-194.798" y1="390.302" x2="-255.101" y2="364.694"/>
	<line fill="none" stroke="#000000" stroke-miterlimit="10" x1="-195.226" y1="390.302" x2="-195.271" y2="378.202"/>
	<line fill="none" stroke="#000000" stroke-miterlimit="10" x1="-195.226" y1="378.202" x2="-255.078" y2="353.026"/>
	<line fill="none" stroke="#000000" stroke-miterlimit="10" x1="-259.854" y1="366.202" x2="-275.104" y2="334.535"/>
	<line fill="none" stroke="#000000" stroke-miterlimit="10" x1="-275.104" y1="334.535" x2="-275.104" y2="291.036"/>
	<line fill="none" stroke="#000000" stroke-miterlimit="10" x1="-259.854" y1="366.202" x2="-255.101" y2="364.694"/>
	<line fill="none" stroke="#000000" stroke-miterlimit="10" x1="-255.101" y1="364.481" x2="-270.351" y2="332.814"/>
	<line fill="none" stroke="#000000" stroke-miterlimit="10" x1="-275.104" y1="334.615" x2="-270.351" y2="333.107"/>
	<line fill="none" stroke="#000000" stroke-miterlimit="10" x1="-270.351" y1="333.107" x2="-270.351" y2="289.608"/>
	<line fill="none" stroke="#000000" stroke-miterlimit="10" x1="-195.226" y1="429.979" x2="-322.021" y2="376.138"/>
	<line fill="none" stroke="#000000" stroke-miterlimit="10" x1="-322.021" y1="322.535" x2="-322.021" y2="376.138"/>
	<line fill="none" stroke="#000000" stroke-miterlimit="10" x1="-322.021" y1="322.535" x2="-308.438" y2="284.203"/>
	<path fill="none" stroke="#000000" stroke-miterlimit="10" d="M-308.438,284.203c0-2.396,6.709-4.334,15-4.334"/>
	<path fill="none" stroke="#000000" stroke-miterlimit="10" d="M-275.104,291.036c0-6.173-8.2-11.167-18.333-11.167"/>
	<path fill="none" stroke="#000000" stroke-miterlimit="10" d="M-270.351,289.787c0-6.173-8.983-13.334-19.117-13.334"/>
	<path fill="none" stroke="#000000" stroke-miterlimit="10" d="M-304.468,279.161c1.738-1.938,6.709-2.708,15-2.708"/>
	<line fill="none" stroke="#000000" stroke-miterlimit="10" x1="-308.438" y1="283.786" x2="-304.468" y2="279.161"/>
	<line fill="none" stroke="#000000" stroke-miterlimit="10" x1="-255.078" y1="353.026" x2="-227.378" y2="344.024"/>
	<line fill="none" stroke="#000000" stroke-miterlimit="10" x1="-255.078" y1="365.085" x2="-255.123" y2="352.985"/>
	<line fill="none" stroke="#000000" stroke-miterlimit="10" x1="-195.271" y1="285.693" x2="-194.798" y2="272.28"/>
	<path fill="none" stroke="#000000" stroke-miterlimit="10" d="M-194.798,272.458c0-6.173-8.984-13.334-19.117-13.334"/>
	<path fill="none" stroke="#000000" stroke-miterlimit="10" d="M-227.48,259.953c0,0,5.273-0.828,13.564-0.828"/>
	<line fill="none" stroke="#000000" stroke-miterlimit="10" x1="-300.938" y1="277.403" x2="-227.48" y2="260.125"/>
	<g>
		<g>
			<path d="M-195.101,393.646c-0.002-3.156-0.004-6.313-0.006-9.47c-0.004-7.271-0.008-14.542-0.013-21.813
				c-0.005-8.087-0.011-16.175-0.015-24.262c-0.004-5.605-0.008-11.211-0.011-16.815c-0.001-0.842-0.001-1.684-0.001-2.525
				c0-0.161-0.25-0.162-0.25-0.002c0.002,3.157,0.004,6.313,0.006,9.471c0.004,7.271,0.008,14.541,0.013,21.813
				c0.005,8.087,0.011,16.174,0.015,24.261c0.004,5.605,0.008,11.211,0.011,16.816c0.001,0.842,0.001,1.683,0.001,2.524
				C-195.351,393.806-195.101,393.808-195.101,393.646L-195.101,393.646z"/>
		</g>
	</g>
	<g>
		<g>
			<path d="M-197.242,318.023c-2.391-1.008-4.781-2.016-7.172-3.023c-5.898-2.486-11.795-4.973-17.693-7.458
				c-7.49-3.157-14.98-6.314-22.471-9.472c-7.169-3.022-14.339-6.044-21.509-9.066c-4.936-2.081-9.872-4.161-14.808-6.242
				c-1.105-0.466-2.209-0.931-3.314-1.397c-0.146-0.062-0.273,0.154-0.125,0.217c2.391,1.008,4.782,2.016,7.173,3.023
				c5.897,2.486,11.795,4.972,17.692,7.458c7.49,3.157,14.98,6.314,22.47,9.473c7.17,3.021,14.34,6.044,21.51,9.066
				c4.936,2.08,9.872,4.16,14.808,6.241c1.104,0.466,2.21,0.931,3.313,1.397C-197.22,318.301-197.093,318.086-197.242,318.023
				L-197.242,318.023z"/>
		</g>
	</g>
	<path fill="none" stroke="#000000" stroke-miterlimit="10" d="M-282.672,277.596"/>
	<path fill="none" stroke="#000000" stroke-miterlimit="10" d="M-197.722,313.668"/>
	<g>
		<g>
			<path d="M-120.554,288.564c-2.623-0.862-5.244-1.725-7.867-2.587c-6.349-2.088-12.697-4.175-19.047-6.263
				c-7.799-2.565-15.599-5.13-23.398-7.695c-6.975-2.294-13.949-4.587-20.924-6.881c-3.874-1.274-7.748-2.548-11.621-3.822
				c-0.22-0.072-0.439-0.144-0.658-0.216c-0.153-0.05-0.219,0.191-0.066,0.241c2.623,0.862,5.244,1.725,7.867,2.587
				c6.349,2.088,12.697,4.175,19.047,6.263c7.799,2.565,15.599,5.13,23.398,7.695c6.975,2.294,13.949,4.587,20.924,6.881
				c3.874,1.274,7.748,2.548,11.621,3.822c0.22,0.072,0.439,0.144,0.658,0.216C-120.467,288.856-120.402,288.615-120.554,288.564
				L-120.554,288.564z"/>
		</g>
	</g>
	<g>
		<g>
			<path d="M-119.078,289.493c0.162,0,0.164-0.25,0.002-0.25C-119.237,289.243-119.238,289.493-119.078,289.493L-119.078,289.493z"
				/>
		</g>
	</g>
	<g>
		<g>
			<path d="M-117.146,366.203c0-3.231,0-6.462,0-9.693c0-7.366,0-14.732,0-22.099c0-8.013,0-16.024,0-24.036
				c0-5.168,0-10.336,0-15.503c0-0.493,0-0.985,0-1.478c0-0.162-0.25-0.163-0.25-0.002c0,3.231,0,6.461,0,9.693
				c0,7.366,0,14.733,0,22.099c0,8.013,0,16.024,0,24.037c0,5.167,0,10.335,0,15.503c0,0.492,0,0.985,0,1.478
				C-117.396,366.362-117.146,366.364-117.146,366.203L-117.146,366.203z"/>
		</g>
	</g>
	<g>
		<g>
			<path d="M-192.062,318.252c2.834-1.026,5.67-2.053,8.504-3.079c6.653-2.409,13.307-4.817,19.959-7.227
				c7.695-2.786,15.389-5.572,23.084-8.358c5.959-2.157,11.918-4.315,17.876-6.473c1.659-0.601,3.319-1.202,4.979-1.803
				c0.15-0.054,0.086-0.296-0.064-0.241c-2.836,1.026-5.67,2.053-8.505,3.079c-6.653,2.409-13.306,4.818-19.96,7.227
				c-7.693,2.786-15.389,5.572-23.082,8.358c-5.959,2.157-11.918,4.315-17.877,6.473c-1.66,0.601-3.319,1.202-4.979,1.803
				C-192.277,318.064-192.214,318.307-192.062,318.252L-192.062,318.252z"/>
		</g>
	</g>
	<g>
		<g>
			<path d="M-117.146,293.394c-0.035-2.284-1.308-4.519-3.703-4.926c-0.157-0.027-0.225,0.214-0.066,0.241
				c2.286,0.389,3.485,2.501,3.52,4.683C-117.394,293.553-117.144,293.555-117.146,293.394L-117.146,293.394z"/>
		</g>
	</g>
	<path fill="none" stroke="#000000" stroke-miterlimit="10" d="M-192.513,313.668"/>
	<g>
		<g>
			<path d="M-197.367,318.24c0.709,0.343,1.421,0.625,2.217,0.652c1.043,0.035,2.105-0.341,3.088-0.641
				c0.153-0.047,0.09-0.289-0.064-0.241c-0.939,0.286-1.904,0.6-2.895,0.632c-0.791,0.025-1.522-0.281-2.221-0.619
				C-197.386,317.953-197.511,318.169-197.367,318.24L-197.367,318.24z"/>
		</g>
	</g>
	<ellipse fill="none" stroke="#000000" stroke-miterlimit="10" cx="-192.378" cy="297.465" rx="37.49" ry="11.81"/>
	<line fill="none" stroke="#000000" stroke-miterlimit="10" x1="-239.041" y1="314.756" x2="-229.73" y2="296.483"/>
	<line fill="none" stroke="#000000" stroke-miterlimit="10" x1="-154.888" y1="297.465" x2="-148.359" y2="315.973"/>
	<line fill="none" stroke="#000000" stroke-miterlimit="10" x1="-217.833" y1="323.766" x2="-217.833" y2="332.531"/>
	<line fill="none" stroke="#000000" stroke-miterlimit="10" x1="-166.546" y1="324.578" x2="-166.546" y2="334.775"/>
	<path fill="none" stroke="#000000" stroke-miterlimit="10" d="M-239.041,314.756c3.736,6.436,26.986,11.52,46.662,11.52"/>
	<path fill="none" stroke="#000000" stroke-miterlimit="10" d="M-217.833,332.531c0,4.832,11.008,7.66,25.455,7.66"/>
	<path fill="none" stroke="#000000" stroke-miterlimit="10" d="M-148.359,315.973c-6.529,7.52-18.982,10.303-44.02,10.303"/>
	<path fill="none" stroke="#000000" stroke-miterlimit="10" d="M-166.546,334.775c0,3.592-11.932,5.416-25.832,5.416"/>
	<path fill="none" stroke="#000000" stroke-miterlimit="10" d="M-224.888,332.531c0,6.354,14.541,11.493,32.51,11.493"/>
	<path fill="none" stroke="#000000" stroke-miterlimit="10" d="M-160.138,332.531c0,7.66-14.42,11.493-32.24,11.493"/>
	<path fill="none" stroke="#000000" stroke-miterlimit="10" d="M-224.888,332.531c0-0.557,3.156-3.09,7.055-3.09"/>
	<path fill="none" stroke="#000000" stroke-miterlimit="10" d="M-160.138,332.531c0-0.557-2.865-2.09-6.408-2.09"/>
	<line fill="none" stroke="#000000" stroke-miterlimit="10" x1="-224.888" y1="332.531" x2="-229.847" y2="357.552"/>
	<line fill="none" stroke="#000000" stroke-miterlimit="10" x1="-160.138" y1="332.531" x2="-155.179" y2="357.552"/>
	<path fill="none" stroke="#000000" stroke-miterlimit="10" d="M-229.847,357.552c0,4.836,16.762,10.43,37.861,10.43"/>
	<path fill="none" stroke="#000000" stroke-miterlimit="10" d="M-155.179,357.552c0,4.836-16.463,10.43-36.807,10.43"/>
</g>
<g>
	<line fill="none" stroke="#000000" stroke-miterlimit="10" x1="325.125" y1="134.479" x2="344.243" y2="235.979"/>
	<line fill="none" stroke="#000000" stroke-miterlimit="10" x1="344.243" y1="235.979" x2="339.489" y2="263.751"/>
	<line fill="none" stroke="#000000" stroke-miterlimit="10" x1="423.223" y1="245.729" x2="317.526" y2="268.479"/>
	<line fill="none" stroke="#000000" stroke-miterlimit="10" x1="312.858" y1="265.916" x2="289.989" y2="168.479"/>
	<line fill="none" stroke="#000000" stroke-miterlimit="10" x1="325.125" y1="134.479" x2="299.364" y2="146.479"/>
	<path fill="none" stroke="#000000" stroke-miterlimit="10" d="M289.989,168.479c0-12.16,4.193-22,9.375-22"/>
	<line fill="none" stroke="#000000" stroke-miterlimit="10" x1="325.125" y1="134.479" x2="413.106" y2="123.271"/>
	<line fill="none" stroke="#000000" stroke-miterlimit="10" x1="420.325" y1="127.563" x2="437.527" y2="218.896"/>
	<line fill="none" stroke="#000000" stroke-miterlimit="10" x1="437.527" y1="218.896" x2="423.223" y2="245.729"/>
	<line fill="none" stroke="#000000" stroke-miterlimit="10" x1="403.852" y1="149.515" x2="423.223" y2="245.729"/>
	<path fill="none" stroke="#000000" stroke-miterlimit="10" d="M423.686,143.979"/>
	<path fill="none" stroke="#000000" stroke-miterlimit="10" d="M329.489,155.979"/>
	<path fill="none" stroke="#000000" stroke-miterlimit="10" d="M420.325,127.563c0-2.373-3.229-4.293-7.219-4.293"/>
	<g>
		<path fill="none" stroke="#000000" stroke-miterlimit="10" d="M447.891,309.26c0.133,0.068,0.266,0.138,0.377,0.249
			c0.57,0.57,0.588,1.553,0,2.121c-0.191,0.186-0.406,0.35-0.637,0.484c-0.941,0.555-1.832-0.029-2.131-0.818
			c-0.064-0.013-0.123-0.01-0.191-0.03c-4.164-1.308-8.555,0.518-12.646-0.714c-1.236-0.373-1.885-1.07-1.998-1.842
			c-18.375,0.761-32.562,5.709-32.562,11.705c0,6.522,16.785,11.81,37.492,11.81c20.705,0,37.49-5.287,37.49-11.81
			C473.084,315.25,462.553,310.863,447.891,309.26z"/>
		<line fill="none" stroke="#000000" stroke-miterlimit="10" x1="389.615" y1="338.922" x2="398.242" y2="319.433"/>
		<line fill="none" stroke="#000000" stroke-miterlimit="10" x1="473.084" y1="320.415" x2="479.611" y2="338.922"/>
		<path fill="none" stroke="#000000" stroke-miterlimit="10" d="M389.615,338.922c3.735,6.436,26.985,12.176,46.663,12.176"/>
		<path fill="none" stroke="#000000" stroke-miterlimit="10" d="M479.611,338.922c-6.527,7.521-18.98,12.176-44.018,12.176"/>
	</g>
	<line fill="none" stroke="#000000" stroke-miterlimit="10" x1="400.848" y1="345.729" x2="398.321" y2="359.299"/>
	<line fill="none" stroke="#000000" stroke-miterlimit="10" x1="470.363" y1="345.656" x2="472.988" y2="359.299"/>
	<path fill="none" stroke="#000000" stroke-miterlimit="10" d="M403.852,149.515c0-2.373-3.229-4.293-7.22-4.293"/>
	<line fill="none" stroke="#000000" stroke-miterlimit="10" x1="329.489" y1="155.979" x2="396.632" y2="145.222"/>
	<path fill="none" stroke="#000000" stroke-miterlimit="10" d="M398.321,359.299c0,4.836,16.761,10.43,37.861,10.43"/>
	<path fill="none" stroke="#000000" stroke-miterlimit="10" d="M472.988,359.299c0,4.836-16.463,10.43-36.807,10.43"/>
	<line fill="none" stroke="#000000" stroke-miterlimit="10" x1="432.322" y1="380.146" x2="502.488" y2="357.896"/>
	<line fill="none" stroke="#000000" stroke-miterlimit="10" x1="432.367" y1="392.244" x2="502.488" y2="366.901"/>
	<line fill="none" stroke="#000000" stroke-miterlimit="10" x1="432.367" y1="395.589" x2="510.322" y2="368.146"/>
	<line fill="none" stroke="#000000" stroke-miterlimit="10" x1="470.363" y1="347.229" x2="502.488" y2="357.896"/>
	<line fill="none" stroke="#000000" stroke-miterlimit="10" x1="502.488" y1="357.896" x2="502.488" y2="366.901"/>
	<line fill="none" stroke="#000000" stroke-miterlimit="10" x1="502.488" y1="366.901" x2="510.322" y2="368.146"/>
	<line fill="none" stroke="#000000" stroke-miterlimit="10" x1="510.322" y1="368.146" x2="510.322" y2="404.479"/>
	<line fill="none" stroke="#000000" stroke-miterlimit="10" x1="432.367" y1="431.922" x2="510.322" y2="404.479"/>
	<line fill="none" stroke="#000000" stroke-miterlimit="10" x1="432.367" y1="395.589" x2="432.367" y2="431.922"/>
	<line fill="none" stroke="#000000" stroke-miterlimit="10" x1="432.367" y1="395.589" x2="367.739" y2="368.146"/>
	<line fill="none" stroke="#000000" stroke-miterlimit="10" x1="432.795" y1="392.244" x2="372.493" y2="366.638"/>
	<line fill="none" stroke="#000000" stroke-miterlimit="10" x1="432.367" y1="392.244" x2="432.322" y2="380.146"/>
	<line fill="none" stroke="#000000" stroke-miterlimit="10" x1="432.367" y1="380.146" x2="372.515" y2="354.97"/>
	<line fill="none" stroke="#000000" stroke-miterlimit="10" x1="367.739" y1="368.146" x2="352.489" y2="336.479"/>
	<line fill="none" stroke="#000000" stroke-miterlimit="10" x1="352.489" y1="336.479" x2="352.489" y2="292.979"/>
	<line fill="none" stroke="#000000" stroke-miterlimit="10" x1="367.739" y1="368.146" x2="372.493" y2="366.638"/>
	<line fill="none" stroke="#000000" stroke-miterlimit="10" x1="372.493" y1="366.424" x2="357.243" y2="334.757"/>
	<line fill="none" stroke="#000000" stroke-miterlimit="10" x1="352.489" y1="336.559" x2="357.243" y2="335.051"/>
	<line fill="none" stroke="#000000" stroke-miterlimit="10" x1="357.243" y1="335.051" x2="357.243" y2="291.551"/>
	<line fill="none" stroke="#000000" stroke-miterlimit="10" x1="432.367" y1="431.922" x2="305.571" y2="378.081"/>
	<line fill="none" stroke="#000000" stroke-miterlimit="10" x1="305.571" y1="324.479" x2="305.571" y2="378.081"/>
	<line fill="none" stroke="#000000" stroke-miterlimit="10" x1="305.571" y1="324.479" x2="319.155" y2="286.146"/>
	<path fill="none" stroke="#000000" stroke-miterlimit="10" d="M319.155,286.146c0-2.396,6.709-4.334,15-4.334"/>
	<path fill="none" stroke="#000000" stroke-miterlimit="10" d="M352.489,292.979c0-6.173-8.2-11.167-18.334-11.167"/>
	<path fill="none" stroke="#000000" stroke-miterlimit="10" d="M357.243,291.729c0-6.173-8.984-13.334-19.117-13.334"/>
	<path fill="none" stroke="#000000" stroke-miterlimit="10" d="M323.125,281.104c1.738-1.938,6.709-2.708,15-2.708"/>
	<line fill="none" stroke="#000000" stroke-miterlimit="10" x1="319.155" y1="285.729" x2="323.125" y2="281.104"/>
	<path fill="none" stroke="#000000" stroke-miterlimit="10" d="M432.795,305.38c0-10.387,0-20.771,0-31.157"/>
	<line fill="none" stroke="#000000" stroke-miterlimit="10" x1="372.515" y1="354.97" x2="400.848" y2="345.729"/>
	<line fill="none" stroke="#000000" stroke-miterlimit="10" x1="372.515" y1="367.027" x2="372.469" y2="354.929"/>
	<path fill="none" stroke="#000000" stroke-miterlimit="10" d="M432.795,274.401c0-6.173-8.984-13.334-19.118-13.334"/>
	<path fill="none" stroke="#000000" stroke-miterlimit="10" d="M400.114,261.896c0,0,5.272-0.828,13.563-0.828"/>
	<line fill="none" stroke="#000000" stroke-miterlimit="10" x1="326.655" y1="279.346" x2="400.114" y2="262.067"/>
	<line fill="none" stroke="#000000" stroke-miterlimit="10" x1="346.155" y1="262.067" x2="346.155" y2="268.479"/>
	<line fill="none" stroke="#000000" stroke-miterlimit="10" x1="346.155" y1="268.479" x2="349.961" y2="273.864"/>
	<line fill="none" stroke="#000000" stroke-miterlimit="10" x1="346.155" y1="268.479" x2="357.243" y2="265.916"/>
	<line fill="none" stroke="#000000" stroke-miterlimit="10" x1="357.243" y1="265.916" x2="357.243" y2="259.728"/>
	<line fill="none" stroke="#000000" stroke-miterlimit="10" x1="357.243" y1="265.916" x2="362.323" y2="270.997"/>
	<line fill="none" stroke="#000000" stroke-miterlimit="10" x1="383.915" y1="254.12" x2="383.915" y2="260.53"/>
	<line fill="none" stroke="#000000" stroke-miterlimit="10" x1="383.915" y1="260.53" x2="387.255" y2="265.258"/>
	<line fill="none" stroke="#000000" stroke-miterlimit="10" x1="383.915" y1="260.53" x2="395" y2="257.968"/>
	<line fill="none" stroke="#000000" stroke-miterlimit="10" x1="395" y1="257.968" x2="395" y2="251.78"/>
	<line fill="none" stroke="#000000" stroke-miterlimit="10" x1="395" y1="257.968" x2="399.293" y2="262.261"/>
	<path fill="none" stroke="#000000" stroke-miterlimit="10" d="M312.858,265.916c0,1.417,2.088,2.563,4.668,2.563"/>
	<g>
		<g>
			<path fill="#FFFFFF" d="M439.916,310.554c3.557,0,7.111,0,10.668,0c0.412,0,2.203-0.803,1.248-0.803c-3.557,0-7.111,0-10.668,0
				C440.752,309.751,438.961,310.554,439.916,310.554L439.916,310.554z"/>
		</g>
	</g>
	<g>
		<g>
			<path fill="#FFFFFF" d="M453.922,308.79c-4.299-1.724-11.699-1.123-13.852,3.607c-2.271,4.993,11.873,1.258,13.451,0.024
				c0.871-0.681,0.67-1.421-0.422-1.577c-3-0.426-5.16,1.145-8.018,1.225c0.463,0.421,0.928,0.842,1.391,1.262
				c0.691-1.125,2.164-1.203,3.283-1.48c-0.199-0.743-0.398-1.486-0.598-2.229c-1.285,0.378-2.594,0.604-3.928,0.679
				c-0.871,0.398-1.156,0.071-0.859-0.984c4.416-1.809,0.428-1.137-0.797-1.227c-2.971-0.215-5.996-0.4-8.826,0.707
				c-1.092,0.428-3.66,2.098-2.098,3.453c1.662,1.442,4.883,0.642,6.656-0.05c0.314-0.123,2.545-1.267,1.545-1.884
				c-4.375-2.697-9.498-3.262-14.438-2.912c-1.707,0.121-5.899,2.924-2.248,2.666c3.676-0.261,8.336,0.264,11.564,2.254
				c0.514-0.628,1.029-1.256,1.545-1.884c1.105-0.431,3.898,0.404,5.303,0.372c1.682-0.04,3.389-0.256,4.996-0.754
				c3.422-1.06,3.805-3.656-0.168-3.697c-2.961-0.03-8.463,1.563-9.555,4.725c-1.371,3.974,10.947,1.006,11.904,0.766
				c3.262-0.819,2.645-3.031-0.598-2.229c-2.723,0.673-6.135,1.28-7.715,3.853c-0.635,1.031,0.537,1.286,1.391,1.262
				c2.197-0.063,4.77-1.566,6.816-1.276c-0.143-0.525-0.283-1.051-0.424-1.576c-0.766,0.6-2.109,0.546-3.041,0.679
				c2.502-0.356,0.398-2.547,3.309-1.379C450.908,311.749,455.916,309.589,453.922,308.79L453.922,308.79z"/>
		</g>
	</g>
	<g>
		<g>
			<path fill="#FFFFFF" d="M450.928,311.633c-0.15,0.103-0.348,0.127-0.115,0.085c0.521-0.094,1.059-0.082,1.586-0.084
				c0.984-0.004,2,0.185,2.922,0.52c1.119-0.816,2.238-1.635,3.357-2.452c-0.973,0.071-1.941,0.083-2.916,0.083
				c-1.186,0.002-2.83,0.465-3.645,1.385c-0.863,0.972,0.742,1.186,1.371,1.185c0.973-0.001,1.943-0.012,2.916-0.083
				c1.135-0.083,2.338-0.371,3.273-1.055c0.551-0.402,0.932-1.089,0.084-1.398c-3.998-1.455-9.572-1.064-13.107,1.355
				c-0.912,0.624-0.65,1.385,0.4,1.497C448.371,312.812,449.846,312.373,450.928,311.633L450.928,311.633z"/>
		</g>
	</g>
	<g>
		<g>
			<path fill="#FFFFFF" d="M429.496,311.95c1.914-0.008,3.688,0.911,5.553,1.254c1.316,0.241,2.875-0.106,3.871-1.038
				c0.826-0.772,0.625-1.848-0.553-2.063c-2.299-0.423-4.402-1.424-6.783-1.414c-1.254,0.006-2.875,0.389-3.605,1.527
				C427.283,311.3,428.563,311.954,429.496,311.95L429.496,311.95z"/>
		</g>
	</g>
	<g>
		<g>
			<path fill="#FFFFFF" d="M455.709,310.579c1.371,0.715,1.295,2.659,2.75,3.334c0.838,0.388,1.959,0.124,2.803-0.103
				c0.248-0.066,2.943-0.913,2.518-1.558c-0.057-0.084-0.111-0.167-0.166-0.25c-1.506,0.611-3.014,1.224-4.52,1.835
				c0.543,0.015,0.875,0.882,0.988,1.282c0.139,0.499-0.441,1.296-0.574,1.771c-0.305,1.104,5.023,0.382,5.398-0.977
				c0.295-1.069,0.965-1.83,0.395-2.945c-0.494-0.963-1.654-1.308-2.646-1.334c-0.457-0.013-5.156,0.878-4.518,1.835
				c0.055,0.083,0.111,0.167,0.166,0.25c1.773-0.553,3.547-1.106,5.318-1.66c-1.396-0.646-1.344-2.601-2.75-3.334
				c-0.988-0.516-2.563-0.018-3.521,0.327C457.176,309.114,454.836,310.124,455.709,310.579L455.709,310.579z"/>
		</g>
	</g>
	<g>
		<g>
			<path fill="#FFFFFF" d="M459.408,314.117c0.07,0.069,0.129,0.147,0.178,0.232c-0.063-0.104-0.127-0.209-0.189-0.313
				c0.113,0.22,0.18,0.445,0.24,0.684c0.281,1.102,2.371,0.736,3.08,0.546c0.732-0.196,2.678-0.909,2.396-2.013
				c-0.117-0.457-0.293-0.87-0.607-1.231C463.324,310.661,458.09,312.602,459.408,314.117L459.408,314.117z"/>
		</g>
	</g>
	<g>
		<g>
			<path fill="#FFFFFF" d="M459.43,313.782c0.053,0.052,0.096,0.11,0.131,0.175c-0.07-0.132-0.141-0.265-0.211-0.396
				c0.082,0.179,0.113,0.351,0.127,0.545c-0.004-0.149-0.01-0.299-0.016-0.448c0.023,0.945-0.148,1.814,0.469,2.625
				c0.777,1.018,2.707,0.635,3.666,0.207c0.854-0.382,2.184-1.426,1.389-2.467c-0.051-0.06-0.096-0.124-0.129-0.195
				c0.07,0.133,0.141,0.265,0.211,0.396c-0.082-0.189-0.113-0.373-0.129-0.578c0.006,0.149,0.01,0.299,0.016,0.449
				c-0.021-0.905,0.178-1.82-0.469-2.572c-0.846-0.982-2.648-0.66-3.666-0.207C460.023,311.671,458.57,312.782,459.43,313.782
				L459.43,313.782z"/>
		</g>
	</g>
	<g>
		<g>
			<path fill="#FFFFFF" d="M461.643,314.522c2.146,0.011,4.209,0.15,6.254,0.858c2.213,0.766,1.563,2.885,2.4,4.595
				c0.691,1.41-0.451,1.964,0.896,3.137c1.266,1.101,3.35,1.852,4.82,2.726c1.443,0.858,6.117-1.37,5.137-1.953
				c-1.617-0.96-3.166-1.832-4.82-2.726c-0.555-0.3-0.402-2.082-0.557-2.651c-0.301-1.103-0.564-1.965-0.703-3.13
				c-0.432-3.617-8.807-3.333-11.133-3.346C462.289,312.023,457.979,314.502,461.643,314.522L461.643,314.522z"/>
		</g>
	</g>
	<g>
		<g>
			<path fill="#FFFFFF" d="M423.699,306.675c-1.395,0.316-2.948,1.523-2.901,3.097c0.04,1.325,0.755,2.501,2.083,2.906
				c1.328,0.406,2.951,0.049,3.871-1.037c0.803-0.946,0.529-2.3-0.717-2.681c-0.221-0.072-0.129-0.02,0.27,0.16
				c-0.174-0.124-0.115-0.057,0.178,0.201c-0.092-0.088-0.16-0.201-0.223-0.313c0.078,0.16,0.156,0.318,0.232,0.479
				c-0.102-0.211-0.158-0.421-0.18-0.653c0.012,0.177,0.023,0.354,0.037,0.53c-0.008-0.248,0.148-0.667-0.08-0.008
				c0.098-0.206,0.031-0.111-0.201,0.282c-0.119,0.11-0.238,0.221-0.357,0.331c-1.143,0.445-1.475,0.61-0.996,0.494
				c1.092-0.247,2.58-1.325,2.23-2.629C426.58,306.474,424.791,306.427,423.699,306.675L423.699,306.675z"/>
		</g>
	</g>
	<g>
		<g>
			<path fill="#FFFFFF" d="M430.678,307.675c2.227,0,5.766-3.377,2.059-3.377C430.512,304.298,426.973,307.675,430.678,307.675
				L430.678,307.675z"/>
		</g>
	</g>
	<g>
		<path fill="none" stroke="#000000" stroke-miterlimit="10" d="M531.506,262.512c-0.086,1.544-7.77,6.157-28.229,10.086"/>
		<path fill="none" stroke="#000000" stroke-miterlimit="10" d="M468.639,291.073c9.709-7.776,21.725-14.111,33.82-18.318"/>
		<path fill="none" stroke="#000000" stroke-miterlimit="10" d="M425.668,305.917c0.035,0.181,6.797-0.967,15.121-2.564"/>
		<path fill="none" stroke="#000000" stroke-miterlimit="10" d="M440.789,303.353c4.357-1.176,22.344-6.497,27.85-12.279"/>
		<path fill="none" stroke="#000000" stroke-miterlimit="10" d="M423.902,314.401c-1.898-3.708-3.201-8.719,1.766-8.484"/>
		<path fill="none" stroke="#000000" stroke-miterlimit="10" d="M423.902,314.401c4.563,6.082,16.619,14.98,43.064,1.782"/>
		<path fill="none" stroke="#000000" stroke-miterlimit="10" d="M464.127,306.678c3.205,16.694,16.068,26.02,22.613,20.058"/>
		<path fill="none" stroke="#000000" stroke-miterlimit="10" d="M478.682,315.083c5.789,12.042,14.682,22.554,28.561,17.936"/>
		<path fill="none" stroke="#000000" stroke-miterlimit="10" d="M512.48,314.336c1.809,9.424-1.764,17.337-5.238,18.683"/>
		<path fill="none" stroke="#000000" stroke-miterlimit="10" d="M499.568,314.27c2.525,1.663,15.41,0.717,20.09-1.879"/>
		<path fill="none" stroke="#000000" stroke-miterlimit="10" d="M536.178,290.041c0.514,5.438-5.451,17.679-16.52,22.35"/>
		<path fill="none" stroke="#000000" stroke-miterlimit="10" d="M536.184,292.84c7.189-2.78,10.828-4.37,18.186-7.819"/>
		<path fill="none" stroke="#000000" stroke-miterlimit="10" d="M506.428,319.938c-0.563-2.933-1.752-5.165-2.656-4.991"/>
		<path fill="none" stroke="#000000" stroke-miterlimit="10" d="M525.314,266.288c-0.48-2.51,0.557-4.816,2.32-5.154"/>
		<path fill="none" stroke="#000000" stroke-miterlimit="10" d="M542.799,290.217c6.389,10.294,21.199,21.084,22.707,16.34"/>
		<path fill="none" stroke="#000000" stroke-miterlimit="10" d="M565.506,306.557c2.193-11.113-32.564-46.951-37.871-45.423"/>
		<path fill="none" stroke="#000000" stroke-miterlimit="10" d="M523.969,267.082c-6.734-8.406-2.479-13.424,1.922-15.032"/>
		<path fill="none" stroke="#000000" stroke-miterlimit="10" d="M572.385,295.317c-11.809-21.723-29.785-45.076-46.494-43.268"/>
		<path fill="none" stroke="#000000" stroke-miterlimit="10" d="M541.125,290.89c2.49,3.578,13.787,23.473,30.045,21.962"/>
		<path fill="none" stroke="#000000" stroke-miterlimit="10" d="M572.385,295.317c5.871,12.017,1.227,17.064-1.215,17.534"/>
	</g>
	<path fill="none" stroke="#000000" stroke-miterlimit="10" d="M425.668,305.917c-0.377,6.75,8.539,8.069,18.115,8.069"/>
	<path fill="none" stroke="#000000" stroke-miterlimit="10" d="M441.736,303.091c4.193,6.553,2.926,10.12,2.047,10.896"/>
</g>
</svg>
