<?xml version="1.0" encoding="utf-8"?>
<!-- Generator: Adobe Illustrator 15.0.0, SVG Export Plug-In . SVG Version: 6.00 Build 0)  -->
<!DOCTYPE svg PUBLIC "-//W3C//DTD SVG 1.1//EN" "http://www.w3.org/Graphics/SVG/1.1/DTD/svg11.dtd">
<svg version="1.1" id="Capa_1" xmlns="http://www.w3.org/2000/svg" xmlns:xlink="http://www.w3.org/1999/xlink" x="0px" y="0px" 
   viewBox="390 240 110 100" enable-background="new 300 210 230 180" xml:space="preserve">
<g>
	<path fill="none" stroke="#000000" stroke-miterlimit="10" d="M440.509,275.311"/>
	<ellipse fill="none" stroke="#000000" stroke-miterlimit="10" cx="440.644" cy="259.108" rx="37.49" ry="11.81"/>
	<line fill="none" stroke="#000000" stroke-miterlimit="10" x1="393.981" y1="276.399" x2="403.292" y2="258.125"/>
	<line fill="none" stroke="#000000" stroke-miterlimit="10" x1="478.134" y1="259.108" x2="484.663" y2="277.615"/>
	<line fill="none" stroke="#000000" stroke-miterlimit="10" x1="415.188" y1="285.409" x2="415.188" y2="294.173"/>
	<line fill="none" stroke="#000000" stroke-miterlimit="10" x1="466.476" y1="286.22" x2="466.476" y2="296.417"/>
	<path fill="none" stroke="#000000" stroke-miterlimit="10" d="M393.981,276.399c3.736,6.436,26.986,11.519,46.662,11.519"/>
	<path fill="none" stroke="#000000" stroke-miterlimit="10" d="M415.188,294.173c0,4.833,11.008,7.661,25.455,7.661"/>
	<path fill="none" stroke="#000000" stroke-miterlimit="10" d="M484.663,277.615c-6.529,7.521-18.982,10.303-44.02,10.303"/>
	<path fill="none" stroke="#000000" stroke-miterlimit="10" d="M466.476,296.417c0,3.592-11.932,5.417-25.832,5.417"/>
	<path fill="none" stroke="#000000" stroke-miterlimit="10" d="M408.134,294.173c0,6.354,14.541,11.494,32.51,11.494"/>
	<path fill="none" stroke="#000000" stroke-miterlimit="10" d="M472.884,294.173c0,7.661-14.42,11.494-32.24,11.494"/>
	<path fill="none" stroke="#000000" stroke-miterlimit="10" d="M408.134,294.173c0-0.556,3.156-3.089,7.055-3.089"/>
	<path fill="none" stroke="#000000" stroke-miterlimit="10" d="M472.884,294.173c0-0.556-2.865-2.089-6.408-2.089"/>
	<line fill="none" stroke="#000000" stroke-miterlimit="10" x1="408.134" y1="294.173" x2="403.175" y2="319.194"/>
	<line fill="none" stroke="#000000" stroke-miterlimit="10" x1="472.884" y1="294.173" x2="477.843" y2="319.194"/>
	<path fill="none" stroke="#000000" stroke-miterlimit="10" d="M403.175,319.194c0,4.836,16.762,10.43,37.861,10.43"/>
	<path fill="none" stroke="#000000" stroke-miterlimit="10" d="M477.843,319.194c0,4.836-16.463,10.43-36.807,10.43"/>
</g>
</svg>
