<?xml version="1.0" encoding="utf-8"?>
<!-- Generator: Adobe Illustrator 15.0.0, SVG Export Plug-In . SVG Version: 6.00 Build 0)  -->
<!DOCTYPE svg PUBLIC "-//W3C//DTD SVG 1.1//EN" "http://www.w3.org/Graphics/SVG/1.1/DTD/svg11.dtd">
<svg version="1.1" id="Capa_1" xmlns="http://www.w3.org/2000/svg" xmlns:xlink="http://www.w3.org/1999/xlink" x="0px" y="0px" viewBox="300 210 230 190" enable-background="new 300 210 230 180" xml:space="preserve">
<g>
	<line fill="none" stroke="#000000" stroke-miterlimit="10" x1="1113.025" y1="231.027" x2="1132.143" y2="332.527"/>
	<line fill="none" stroke="#000000" stroke-miterlimit="10" x1="1132.143" y1="332.527" x2="1127.389" y2="360.301"/>
	<line fill="none" stroke="#000000" stroke-miterlimit="10" x1="1211.123" y1="342.277" x2="1105.426" y2="365.027"/>
	<line fill="none" stroke="#000000" stroke-miterlimit="10" x1="1100.758" y1="362.465" x2="1077.889" y2="265.027"/>
	<line fill="none" stroke="#000000" stroke-miterlimit="10" x1="1113.025" y1="231.027" x2="1087.264" y2="243.027"/>
	<path fill="none" stroke="#000000" stroke-miterlimit="10" d="M1077.889,265.027c0-12.16,4.193-22,9.375-22"/>
	<line fill="none" stroke="#000000" stroke-miterlimit="10" x1="1113.025" y1="231.027" x2="1201.006" y2="219.819"/>
	<line fill="none" stroke="#000000" stroke-miterlimit="10" x1="1208.225" y1="224.112" x2="1225.428" y2="315.443"/>
	<line fill="none" stroke="#000000" stroke-miterlimit="10" x1="1225.428" y1="315.443" x2="1211.123" y2="342.277"/>
	<line fill="none" stroke="#000000" stroke-miterlimit="10" x1="1191.752" y1="246.063" x2="1211.123" y2="342.277"/>
	<path fill="none" stroke="#000000" stroke-miterlimit="10" d="M1211.585,240.527"/>
	<path fill="none" stroke="#000000" stroke-miterlimit="10" d="M1117.389,252.527"/>
	<path fill="none" stroke="#000000" stroke-miterlimit="10" d="M1208.225,224.112c0-2.373-3.229-4.293-7.219-4.293"/>
	<ellipse fill="none" stroke="#000000" stroke-miterlimit="10" cx="1223.398" cy="395.718" rx="37.491" ry="11.81"/>
	<line fill="none" stroke="#000000" stroke-miterlimit="10" x1="1177.42" y1="414.225" x2="1186.047" y2="394.735"/>
	<line fill="none" stroke="#000000" stroke-miterlimit="10" x1="1260.889" y1="395.718" x2="1267.417" y2="414.225"/>
	<line fill="none" stroke="#000000" stroke-miterlimit="10" x1="1197.943" y1="423.754" x2="1197.943" y2="430.783"/>
	<line fill="none" stroke="#000000" stroke-miterlimit="10" x1="1249.23" y1="423.963" x2="1249.23" y2="432.277"/>
	<path fill="none" stroke="#000000" stroke-miterlimit="10" d="M1177.42,414.225c3.735,6.436,26.985,12.176,46.662,12.176"/>
	<path fill="none" stroke="#000000" stroke-miterlimit="10" d="M1267.417,414.225c-6.528,7.521-18.981,12.176-44.019,12.176"/>
	<path fill="none" stroke="#000000" stroke-miterlimit="10" d="M1190.889,430.783c0,6.354,15.224,10.244,33.193,10.244"/>
	<path fill="none" stroke="#000000" stroke-miterlimit="10" d="M1255.639,430.783c0,7.661-13.736,10.244-31.557,10.244"/>
	<path fill="none" stroke="#000000" stroke-miterlimit="10" d="M1190.889,430.783c0-0.556,3.154-3.089,7.055-3.089"/>
	<path fill="none" stroke="#000000" stroke-miterlimit="10" d="M1255.639,430.783c0-0.556-2.867-2.089-6.408-2.089"/>
	<line fill="none" stroke="#000000" stroke-miterlimit="10" x1="1190.889" y1="430.783" x2="1186.221" y2="455.848"/>
	<line fill="none" stroke="#000000" stroke-miterlimit="10" x1="1255.639" y1="430.783" x2="1260.889" y2="455.848"/>
	<path fill="none" stroke="#000000" stroke-miterlimit="10" d="M1191.752,246.063c0-2.373-3.229-4.293-7.22-4.293"/>
	<line fill="none" stroke="#000000" stroke-miterlimit="10" x1="1117.389" y1="252.527" x2="1184.532" y2="241.771"/>
	<path fill="none" stroke="#000000" stroke-miterlimit="10" d="M1186.221,455.848c0,4.836,16.761,10.43,37.861,10.43"/>
	<path fill="none" stroke="#000000" stroke-miterlimit="10" d="M1260.889,455.848c0,4.836-16.463,10.43-36.807,10.43"/>
	<line fill="none" stroke="#000000" stroke-miterlimit="10" x1="1220.222" y1="476.694" x2="1290.389" y2="454.445"/>
	<line fill="none" stroke="#000000" stroke-miterlimit="10" x1="1220.268" y1="488.793" x2="1290.389" y2="463.45"/>
	<line fill="none" stroke="#000000" stroke-miterlimit="10" x1="1220.268" y1="492.138" x2="1298.222" y2="464.694"/>
	<line fill="none" stroke="#000000" stroke-miterlimit="10" x1="1258.264" y1="443.778" x2="1290.389" y2="454.445"/>
	<line fill="none" stroke="#000000" stroke-miterlimit="10" x1="1290.389" y1="454.445" x2="1290.389" y2="463.45"/>
	<line fill="none" stroke="#000000" stroke-miterlimit="10" x1="1290.389" y1="463.45" x2="1298.222" y2="464.694"/>
	<line fill="none" stroke="#000000" stroke-miterlimit="10" x1="1298.222" y1="464.694" x2="1298.222" y2="501.027"/>
	<line fill="none" stroke="#000000" stroke-miterlimit="10" x1="1220.268" y1="528.471" x2="1298.222" y2="501.027"/>
	<line fill="none" stroke="#000000" stroke-miterlimit="10" x1="1220.268" y1="492.138" x2="1220.268" y2="528.471"/>
	<line fill="none" stroke="#000000" stroke-miterlimit="10" x1="1220.268" y1="492.138" x2="1155.639" y2="464.694"/>
	<line fill="none" stroke="#000000" stroke-miterlimit="10" x1="1220.694" y1="488.793" x2="1160.393" y2="463.187"/>
	<line fill="none" stroke="#000000" stroke-miterlimit="10" x1="1220.268" y1="488.793" x2="1220.222" y2="476.694"/>
	<line fill="none" stroke="#000000" stroke-miterlimit="10" x1="1220.268" y1="476.694" x2="1160.415" y2="451.519"/>
	<line fill="none" stroke="#000000" stroke-miterlimit="10" x1="1155.639" y1="464.694" x2="1140.389" y2="433.027"/>
	<line fill="none" stroke="#000000" stroke-miterlimit="10" x1="1140.389" y1="433.027" x2="1140.389" y2="389.527"/>
	<line fill="none" stroke="#000000" stroke-miterlimit="10" x1="1155.639" y1="464.694" x2="1160.393" y2="463.187"/>
	<line fill="none" stroke="#000000" stroke-miterlimit="10" x1="1160.393" y1="462.973" x2="1145.143" y2="431.306"/>
	<line fill="none" stroke="#000000" stroke-miterlimit="10" x1="1140.389" y1="433.107" x2="1145.143" y2="431.6"/>
	<line fill="none" stroke="#000000" stroke-miterlimit="10" x1="1145.143" y1="431.6" x2="1145.143" y2="388.1"/>
	<line fill="none" stroke="#000000" stroke-miterlimit="10" x1="1220.268" y1="528.471" x2="1093.471" y2="474.63"/>
	<line fill="none" stroke="#000000" stroke-miterlimit="10" x1="1093.471" y1="421.027" x2="1093.471" y2="474.63"/>
	<line fill="none" stroke="#000000" stroke-miterlimit="10" x1="1093.471" y1="421.027" x2="1107.055" y2="382.694"/>
	<path fill="none" stroke="#000000" stroke-miterlimit="10" d="M1107.055,382.694c0-2.396,6.709-4.334,15-4.334"/>
	<path fill="none" stroke="#000000" stroke-miterlimit="10" d="M1140.389,389.527c0-6.173-8.2-11.167-18.334-11.167"/>
	<path fill="none" stroke="#000000" stroke-miterlimit="10" d="M1145.143,388.278c0-6.173-8.984-13.334-19.117-13.334"/>
	<path fill="none" stroke="#000000" stroke-miterlimit="10" d="M1111.025,377.652c1.738-1.938,6.709-2.708,15-2.708"/>
	<line fill="none" stroke="#000000" stroke-miterlimit="10" x1="1107.055" y1="382.277" x2="1111.025" y2="377.652"/>
	<line fill="none" stroke="#000000" stroke-miterlimit="10" x1="1220.694" y1="383.908" x2="1220.694" y2="370.771"/>
	<line fill="none" stroke="#000000" stroke-miterlimit="10" x1="1160.415" y1="451.519" x2="1188.748" y2="442.277"/>
	<line fill="none" stroke="#000000" stroke-miterlimit="10" x1="1160.415" y1="463.576" x2="1160.369" y2="451.478"/>
	<path fill="none" stroke="#000000" stroke-miterlimit="10" d="M1220.694,370.95c0-6.173-8.983-13.334-19.117-13.334"/>
	<path fill="none" stroke="#000000" stroke-miterlimit="10" d="M1188.014,358.444c0,0,5.272-0.828,13.563-0.828"/>
	<line fill="none" stroke="#000000" stroke-miterlimit="10" x1="1114.555" y1="375.895" x2="1188.014" y2="358.616"/>
	<line fill="none" stroke="#000000" stroke-miterlimit="10" x1="1134.055" y1="358.616" x2="1134.055" y2="365.027"/>
	<line fill="none" stroke="#000000" stroke-miterlimit="10" x1="1134.055" y1="365.027" x2="1137.861" y2="370.412"/>
	<line fill="none" stroke="#000000" stroke-miterlimit="10" x1="1134.055" y1="365.027" x2="1145.143" y2="362.465"/>
	<line fill="none" stroke="#000000" stroke-miterlimit="10" x1="1145.143" y1="362.465" x2="1145.143" y2="356.277"/>
	<line fill="none" stroke="#000000" stroke-miterlimit="10" x1="1145.143" y1="362.465" x2="1150.223" y2="367.546"/>
	<line fill="none" stroke="#000000" stroke-miterlimit="10" x1="1171.814" y1="350.668" x2="1171.814" y2="357.08"/>
	<line fill="none" stroke="#000000" stroke-miterlimit="10" x1="1171.814" y1="357.08" x2="1175.155" y2="361.807"/>
	<line fill="none" stroke="#000000" stroke-miterlimit="10" x1="1171.814" y1="357.08" x2="1182.9" y2="354.518"/>
	<line fill="none" stroke="#000000" stroke-miterlimit="10" x1="1182.9" y1="354.518" x2="1182.9" y2="348.329"/>
	<line fill="none" stroke="#000000" stroke-miterlimit="10" x1="1182.9" y1="354.518" x2="1187.193" y2="358.809"/>
	<path fill="none" stroke="#000000" stroke-miterlimit="10" d="M1100.758,362.465c0,1.416,2.088,2.563,4.668,2.563"/>
	<path fill="none" stroke="#000000" stroke-miterlimit="10" d="M1197.943,430.442c1.867,3.218,14.732,6.085,24.57,6.085"/>
	<path fill="none" stroke="#000000" stroke-miterlimit="10" d="M1249.23,432.277c-4.146,1.88-10.816,4.25-26.717,4.25"/>
</g>
<g>
	<line fill="none" stroke="#000000" stroke-miterlimit="10" x1="437.751" y1="339.845" x2="507.917" y2="317.597"/>
	<line fill="none" stroke="#000000" stroke-miterlimit="10" x1="437.796" y1="351.944" x2="507.917" y2="326.601"/>
	<line fill="none" stroke="#000000" stroke-miterlimit="10" x1="437.796" y1="355.288" x2="515.751" y2="327.845"/>
	<line fill="none" stroke="#000000" stroke-miterlimit="10" x1="475.142" y1="307.546" x2="507.917" y2="317.597"/>
	<line fill="none" stroke="#000000" stroke-miterlimit="10" x1="507.917" y1="317.597" x2="507.917" y2="326.601"/>
	<line fill="none" stroke="#000000" stroke-miterlimit="10" x1="507.917" y1="326.601" x2="515.751" y2="327.845"/>
	<line fill="none" stroke="#000000" stroke-miterlimit="10" x1="515.751" y1="327.845" x2="515.751" y2="364.179"/>
	<line fill="none" stroke="#000000" stroke-miterlimit="10" x1="437.796" y1="391.622" x2="515.751" y2="364.179"/>
	<line fill="none" stroke="#000000" stroke-miterlimit="10" x1="437.796" y1="355.288" x2="437.796" y2="391.622"/>
	<line fill="none" stroke="#000000" stroke-miterlimit="10" x1="437.796" y1="355.288" x2="373.167" y2="327.845"/>
	<line fill="none" stroke="#000000" stroke-miterlimit="10" x1="438.224" y1="351.944" x2="377.921" y2="326.337"/>
	<line fill="none" stroke="#000000" stroke-miterlimit="10" x1="437.796" y1="351.944" x2="437.751" y2="339.845"/>
	<line fill="none" stroke="#000000" stroke-miterlimit="10" x1="437.796" y1="339.845" x2="377.944" y2="314.669"/>
	<line fill="none" stroke="#000000" stroke-miterlimit="10" x1="373.167" y1="327.845" x2="357.917" y2="296.178"/>
	<line fill="none" stroke="#000000" stroke-miterlimit="10" x1="357.917" y1="296.178" x2="357.917" y2="252.678"/>
	<line fill="none" stroke="#000000" stroke-miterlimit="10" x1="373.167" y1="327.845" x2="377.921" y2="326.337"/>
	<line fill="none" stroke="#000000" stroke-miterlimit="10" x1="377.921" y1="326.124" x2="362.671" y2="294.457"/>
	<line fill="none" stroke="#000000" stroke-miterlimit="10" x1="357.917" y1="296.258" x2="362.671" y2="294.75"/>
	<line fill="none" stroke="#000000" stroke-miterlimit="10" x1="362.671" y1="294.75" x2="362.671" y2="251.25"/>
	<line fill="none" stroke="#000000" stroke-miterlimit="10" x1="437.796" y1="391.622" x2="311" y2="337.78"/>
	<line fill="none" stroke="#000000" stroke-miterlimit="10" x1="311" y1="284.178" x2="311" y2="337.78"/>
	<line fill="none" stroke="#000000" stroke-miterlimit="10" x1="311" y1="284.178" x2="324.584" y2="245.845"/>
	<path fill="none" stroke="#000000" stroke-miterlimit="10" d="M324.584,245.845c0-2.396,6.709-4.334,15-4.334"/>
	<path fill="none" stroke="#000000" stroke-miterlimit="10" d="M357.917,252.678c0-6.173-8.2-11.167-18.333-11.167"/>
	<path fill="none" stroke="#000000" stroke-miterlimit="10" d="M362.671,251.429c0-6.173-8.983-13.334-19.117-13.334"/>
	<path fill="none" stroke="#000000" stroke-miterlimit="10" d="M328.554,240.803c1.738-1.938,6.709-2.708,15-2.708"/>
	<line fill="none" stroke="#000000" stroke-miterlimit="10" x1="324.584" y1="245.428" x2="328.554" y2="240.803"/>
	<line fill="none" stroke="#000000" stroke-miterlimit="10" x1="377.944" y1="314.669" x2="405.644" y2="305.667"/>
	<line fill="none" stroke="#000000" stroke-miterlimit="10" x1="377.944" y1="326.728" x2="377.899" y2="314.628"/>
	<line fill="none" stroke="#000000" stroke-miterlimit="10" x1="437.751" y1="247.335" x2="438.224" y2="233.922"/>
	<path fill="none" stroke="#000000" stroke-miterlimit="10" d="M438.224,234.101c0-6.173-8.984-13.334-19.117-13.334"/>
	<path fill="none" stroke="#000000" stroke-miterlimit="10" d="M405.542,221.595c0,0,5.273-0.828,13.564-0.828"/>
	<line fill="none" stroke="#000000" stroke-miterlimit="10" x1="332.084" y1="239.045" x2="405.542" y2="221.767"/>
	<g>
		<g>
			<path d="M437.921,355.289c-0.002-3.156-0.004-6.313-0.006-9.47c-0.004-7.271-0.008-14.542-0.013-21.813
				c-0.005-8.087-0.011-16.175-0.015-24.262c-0.004-5.605-0.008-11.211-0.011-16.816c-0.001-0.842-0.001-1.683-0.001-2.524
				c0-0.162-0.25-0.163-0.25-0.002c0.002,3.157,0.004,6.313,0.006,9.47c0.004,7.271,0.008,14.542,0.013,21.813
				c0.005,8.087,0.011,16.174,0.015,24.261c0.004,5.605,0.008,11.211,0.011,16.816c0.001,0.842,0.001,1.683,0.001,2.524
				C437.671,355.448,437.921,355.45,437.921,355.289L437.921,355.289z"/>
		</g>
	</g>
	<g>
		<g>
			<path d="M435.78,279.666c-2.391-1.008-4.781-2.016-7.172-3.023c-5.898-2.486-11.795-4.972-17.693-7.458
				c-7.49-3.157-14.98-6.314-22.471-9.472c-7.169-3.022-14.339-6.044-21.509-9.066c-4.936-2.081-9.872-4.161-14.808-6.242
				c-1.105-0.466-2.209-0.931-3.314-1.397c-0.146-0.062-0.273,0.154-0.125,0.217c2.391,1.008,4.782,2.016,7.173,3.023
				c5.897,2.486,11.795,4.972,17.692,7.458c7.49,3.157,14.98,6.314,22.47,9.472c7.17,3.022,14.34,6.044,21.51,9.066
				c4.936,2.081,9.872,4.161,14.808,6.242c1.104,0.466,2.21,0.931,3.313,1.397C435.802,279.944,435.929,279.728,435.78,279.666
				L435.78,279.666z"/>
		</g>
	</g>
	<path fill="none" stroke="#000000" stroke-miterlimit="10" d="M350.35,239.239"/>
	<path fill="none" stroke="#000000" stroke-miterlimit="10" d="M435.3,275.311"/>
	<g>
		<g>
			<path d="M512.468,250.207c-2.623-0.862-5.244-1.725-7.867-2.587c-6.349-2.088-12.697-4.175-19.047-6.263
				c-7.799-2.565-15.599-5.13-23.398-7.695c-6.975-2.294-13.949-4.587-20.924-6.881c-3.874-1.274-7.748-2.548-11.621-3.822
				c-0.22-0.072-0.439-0.144-0.658-0.216c-0.153-0.05-0.219,0.191-0.066,0.241c2.623,0.862,5.244,1.725,7.867,2.587
				c6.349,2.088,12.697,4.175,19.047,6.263c7.799,2.565,15.599,5.13,23.398,7.695c6.975,2.294,13.949,4.587,20.924,6.881
				c3.874,1.274,7.748,2.548,11.621,3.822c0.22,0.072,0.439,0.144,0.658,0.216C512.555,250.499,512.62,250.257,512.468,250.207
				L512.468,250.207z"/>
		</g>
	</g>
	<g>
		<g>
			<path d="M513.944,251.135c0.162,0,0.164-0.25,0.002-0.25C513.785,250.885,513.784,251.135,513.944,251.135L513.944,251.135z"/>
		</g>
	</g>
	<g>
		<g>
			<path d="M515.876,327.846c0-3.231,0-6.462,0-9.693c0-7.366,0-14.732,0-22.099c0-8.012,0-16.024,0-24.036
				c0-5.168,0-10.336,0-15.503c0-0.493,0-0.985,0-1.478c0-0.162-0.25-0.163-0.25-0.002c0,3.231,0,6.462,0,9.693
				c0,7.367,0,14.733,0,22.099c0,8.012,0,16.024,0,24.037c0,5.167,0,10.335,0,15.503c0,0.492,0,0.985,0,1.478
				C515.626,328.005,515.876,328.007,515.876,327.846L515.876,327.846z"/>
		</g>
	</g>
	<g>
		<g>
			<path d="M440.96,279.895c2.834-1.026,5.67-2.053,8.504-3.079c6.653-2.409,13.307-4.818,19.959-7.227
				c7.695-2.786,15.389-5.572,23.084-8.358c5.959-2.157,11.918-4.315,17.876-6.473c1.659-0.601,3.319-1.202,4.979-1.803
				c0.15-0.054,0.086-0.296-0.064-0.241c-2.836,1.026-5.67,2.053-8.505,3.079c-6.653,2.409-13.306,4.818-19.96,7.227
				c-7.693,2.786-15.389,5.572-23.082,8.358c-5.959,2.157-11.918,4.315-17.877,6.473c-1.66,0.601-3.319,1.202-4.979,1.803
				C440.745,279.708,440.808,279.95,440.96,279.895L440.96,279.895z"/>
		</g>
	</g>
	<g>
		<g>
			<path d="M515.876,255.037c-0.035-2.284-1.308-4.519-3.703-4.926c-0.157-0.027-0.225,0.214-0.066,0.241
				c2.286,0.389,3.485,2.501,3.52,4.683C515.628,255.196,515.878,255.198,515.876,255.037L515.876,255.037z"/>
		</g>
	</g>
	<path fill="none" stroke="#000000" stroke-miterlimit="10" d="M440.509,275.311"/>
	<g>
		<g>
			<path d="M435.655,279.882c0.709,0.343,1.421,0.626,2.217,0.653c1.043,0.035,2.105-0.341,3.088-0.641
				c0.153-0.047,0.09-0.289-0.064-0.241c-0.939,0.287-1.904,0.6-2.895,0.631c-0.791,0.025-1.522-0.281-2.221-0.619
				C435.636,279.596,435.511,279.812,435.655,279.882L435.655,279.882z"/>
		</g>
	</g>
	<ellipse fill="none" stroke="#000000" stroke-miterlimit="10" cx="440.644" cy="259.108" rx="37.49" ry="11.81"/>
	<line fill="none" stroke="#000000" stroke-miterlimit="10" x1="393.981" y1="276.399" x2="403.292" y2="258.125"/>
	<line fill="none" stroke="#000000" stroke-miterlimit="10" x1="478.134" y1="259.108" x2="484.663" y2="277.615"/>
	<line fill="none" stroke="#000000" stroke-miterlimit="10" x1="415.188" y1="285.409" x2="415.188" y2="294.173"/>
	<line fill="none" stroke="#000000" stroke-miterlimit="10" x1="466.476" y1="286.22" x2="466.476" y2="296.417"/>
	<path fill="none" stroke="#000000" stroke-miterlimit="10" d="M393.981,276.399c3.736,6.436,26.986,11.519,46.662,11.519"/>
	<path fill="none" stroke="#000000" stroke-miterlimit="10" d="M415.188,294.173c0,4.833,11.008,7.661,25.455,7.661"/>
	<path fill="none" stroke="#000000" stroke-miterlimit="10" d="M484.663,277.615c-6.529,7.521-18.982,10.303-44.02,10.303"/>
	<path fill="none" stroke="#000000" stroke-miterlimit="10" d="M466.476,296.417c0,3.592-11.932,5.417-25.832,5.417"/>
	<path fill="none" stroke="#000000" stroke-miterlimit="10" d="M408.134,294.173c0,6.354,14.541,11.494,32.51,11.494"/>
	<path fill="none" stroke="#000000" stroke-miterlimit="10" d="M472.884,294.173c0,7.661-14.42,11.494-32.24,11.494"/>
	<path fill="none" stroke="#000000" stroke-miterlimit="10" d="M408.134,294.173c0-0.556,3.156-3.089,7.055-3.089"/>
	<path fill="none" stroke="#000000" stroke-miterlimit="10" d="M472.884,294.173c0-0.556-2.865-2.089-6.408-2.089"/>
	<line fill="none" stroke="#000000" stroke-miterlimit="10" x1="408.134" y1="294.173" x2="403.175" y2="319.194"/>
	<line fill="none" stroke="#000000" stroke-miterlimit="10" x1="472.884" y1="294.173" x2="477.843" y2="319.194"/>
	<path fill="none" stroke="#000000" stroke-miterlimit="10" d="M403.175,319.194c0,4.836,16.762,10.43,37.861,10.43"/>
	<path fill="none" stroke="#000000" stroke-miterlimit="10" d="M477.843,319.194c0,4.836-16.463,10.43-36.807,10.43"/>
</g>
</svg>
