<?xml version="1.0" encoding="utf-8"?>
<!-- Generator: Adobe Illustrator 15.0.0, SVG Export Plug-In . SVG Version: 6.00 Build 0)  -->
<!DOCTYPE svg PUBLIC "-//W3C//DTD SVG 1.1//EN" "http://www.w3.org/Graphics/SVG/1.1/DTD/svg11.dtd">
<svg version="1.1" id="Capa_1" xmlns="http://www.w3.org/2000/svg" xmlns:xlink="http://www.w3.org/1999/xlink" x="0px" y="0px"
	 width="841.89px" height="595.28px" viewBox="0 0 841.89 595.28" enable-background="new 0 0 841.89 595.28" xml:space="preserve">
<g>
	<line fill="none" stroke="#000000" stroke-miterlimit="10" x1="1113.025" y1="231.027" x2="1132.143" y2="332.527"/>
	<line fill="none" stroke="#000000" stroke-miterlimit="10" x1="1132.143" y1="332.527" x2="1127.389" y2="360.301"/>
	<line fill="none" stroke="#000000" stroke-miterlimit="10" x1="1211.123" y1="342.277" x2="1105.426" y2="365.027"/>
	<line fill="none" stroke="#000000" stroke-miterlimit="10" x1="1100.758" y1="362.465" x2="1077.889" y2="265.027"/>
	<line fill="none" stroke="#000000" stroke-miterlimit="10" x1="1113.025" y1="231.027" x2="1087.264" y2="243.027"/>
	<path fill="none" stroke="#000000" stroke-miterlimit="10" d="M1077.889,265.027c0-12.16,4.193-22,9.375-22"/>
	<line fill="none" stroke="#000000" stroke-miterlimit="10" x1="1113.025" y1="231.027" x2="1201.006" y2="219.819"/>
	<line fill="none" stroke="#000000" stroke-miterlimit="10" x1="1208.225" y1="224.112" x2="1225.428" y2="315.443"/>
	<line fill="none" stroke="#000000" stroke-miterlimit="10" x1="1225.428" y1="315.443" x2="1211.123" y2="342.277"/>
	<line fill="none" stroke="#000000" stroke-miterlimit="10" x1="1191.752" y1="246.063" x2="1211.123" y2="342.277"/>
	<path fill="none" stroke="#000000" stroke-miterlimit="10" d="M1211.585,240.527"/>
	<path fill="none" stroke="#000000" stroke-miterlimit="10" d="M1117.389,252.527"/>
	<path fill="none" stroke="#000000" stroke-miterlimit="10" d="M1208.225,224.112c0-2.373-3.229-4.293-7.219-4.293"/>
	<ellipse fill="none" stroke="#000000" stroke-miterlimit="10" cx="1223.398" cy="395.718" rx="37.491" ry="11.81"/>
	<line fill="none" stroke="#000000" stroke-miterlimit="10" x1="1177.42" y1="414.225" x2="1186.047" y2="394.735"/>
	<line fill="none" stroke="#000000" stroke-miterlimit="10" x1="1260.889" y1="395.718" x2="1267.417" y2="414.225"/>
	<line fill="none" stroke="#000000" stroke-miterlimit="10" x1="1197.943" y1="423.754" x2="1197.943" y2="430.783"/>
	<line fill="none" stroke="#000000" stroke-miterlimit="10" x1="1249.23" y1="423.963" x2="1249.23" y2="432.277"/>
	<path fill="none" stroke="#000000" stroke-miterlimit="10" d="M1177.42,414.225c3.735,6.436,26.985,12.176,46.662,12.176"/>
	<path fill="none" stroke="#000000" stroke-miterlimit="10" d="M1267.417,414.225c-6.528,7.521-18.981,12.176-44.019,12.176"/>
	<path fill="none" stroke="#000000" stroke-miterlimit="10" d="M1190.889,430.783c0,6.354,15.224,10.244,33.193,10.244"/>
	<path fill="none" stroke="#000000" stroke-miterlimit="10" d="M1255.639,430.783c0,7.661-13.736,10.244-31.557,10.244"/>
	<path fill="none" stroke="#000000" stroke-miterlimit="10" d="M1190.889,430.783c0-0.556,3.154-3.089,7.055-3.089"/>
	<path fill="none" stroke="#000000" stroke-miterlimit="10" d="M1255.639,430.783c0-0.556-2.867-2.089-6.408-2.089"/>
	<line fill="none" stroke="#000000" stroke-miterlimit="10" x1="1190.889" y1="430.783" x2="1186.221" y2="455.848"/>
	<line fill="none" stroke="#000000" stroke-miterlimit="10" x1="1255.639" y1="430.783" x2="1260.889" y2="455.848"/>
	<path fill="none" stroke="#000000" stroke-miterlimit="10" d="M1191.752,246.063c0-2.373-3.229-4.293-7.22-4.293"/>
	<line fill="none" stroke="#000000" stroke-miterlimit="10" x1="1117.389" y1="252.527" x2="1184.532" y2="241.771"/>
	<path fill="none" stroke="#000000" stroke-miterlimit="10" d="M1186.221,455.848c0,4.836,16.761,10.43,37.861,10.43"/>
	<path fill="none" stroke="#000000" stroke-miterlimit="10" d="M1260.889,455.848c0,4.836-16.463,10.43-36.807,10.43"/>
	<line fill="none" stroke="#000000" stroke-miterlimit="10" x1="1220.222" y1="476.694" x2="1290.389" y2="454.445"/>
	<line fill="none" stroke="#000000" stroke-miterlimit="10" x1="1220.268" y1="488.793" x2="1290.389" y2="463.45"/>
	<line fill="none" stroke="#000000" stroke-miterlimit="10" x1="1220.268" y1="492.138" x2="1298.222" y2="464.694"/>
	<line fill="none" stroke="#000000" stroke-miterlimit="10" x1="1258.264" y1="443.778" x2="1290.389" y2="454.445"/>
	<line fill="none" stroke="#000000" stroke-miterlimit="10" x1="1290.389" y1="454.445" x2="1290.389" y2="463.45"/>
	<line fill="none" stroke="#000000" stroke-miterlimit="10" x1="1290.389" y1="463.45" x2="1298.222" y2="464.694"/>
	<line fill="none" stroke="#000000" stroke-miterlimit="10" x1="1298.222" y1="464.694" x2="1298.222" y2="501.027"/>
	<line fill="none" stroke="#000000" stroke-miterlimit="10" x1="1220.268" y1="528.471" x2="1298.222" y2="501.027"/>
	<line fill="none" stroke="#000000" stroke-miterlimit="10" x1="1220.268" y1="492.138" x2="1220.268" y2="528.471"/>
	<line fill="none" stroke="#000000" stroke-miterlimit="10" x1="1220.268" y1="492.138" x2="1155.639" y2="464.694"/>
	<line fill="none" stroke="#000000" stroke-miterlimit="10" x1="1220.694" y1="488.793" x2="1160.393" y2="463.187"/>
	<line fill="none" stroke="#000000" stroke-miterlimit="10" x1="1220.268" y1="488.793" x2="1220.222" y2="476.694"/>
	<line fill="none" stroke="#000000" stroke-miterlimit="10" x1="1220.268" y1="476.694" x2="1160.415" y2="451.519"/>
	<line fill="none" stroke="#000000" stroke-miterlimit="10" x1="1155.639" y1="464.694" x2="1140.389" y2="433.027"/>
	<line fill="none" stroke="#000000" stroke-miterlimit="10" x1="1140.389" y1="433.027" x2="1140.389" y2="389.527"/>
	<line fill="none" stroke="#000000" stroke-miterlimit="10" x1="1155.639" y1="464.694" x2="1160.393" y2="463.187"/>
	<line fill="none" stroke="#000000" stroke-miterlimit="10" x1="1160.393" y1="462.973" x2="1145.143" y2="431.306"/>
	<line fill="none" stroke="#000000" stroke-miterlimit="10" x1="1140.389" y1="433.107" x2="1145.143" y2="431.6"/>
	<line fill="none" stroke="#000000" stroke-miterlimit="10" x1="1145.143" y1="431.6" x2="1145.143" y2="388.1"/>
	<line fill="none" stroke="#000000" stroke-miterlimit="10" x1="1220.268" y1="528.471" x2="1093.471" y2="474.63"/>
	<line fill="none" stroke="#000000" stroke-miterlimit="10" x1="1093.471" y1="421.027" x2="1093.471" y2="474.63"/>
	<line fill="none" stroke="#000000" stroke-miterlimit="10" x1="1093.471" y1="421.027" x2="1107.055" y2="382.694"/>
	<path fill="none" stroke="#000000" stroke-miterlimit="10" d="M1107.055,382.694c0-2.396,6.709-4.334,15-4.334"/>
	<path fill="none" stroke="#000000" stroke-miterlimit="10" d="M1140.389,389.527c0-6.173-8.2-11.167-18.334-11.167"/>
	<path fill="none" stroke="#000000" stroke-miterlimit="10" d="M1145.143,388.278c0-6.173-8.984-13.334-19.117-13.334"/>
	<path fill="none" stroke="#000000" stroke-miterlimit="10" d="M1111.025,377.652c1.738-1.938,6.709-2.708,15-2.708"/>
	<line fill="none" stroke="#000000" stroke-miterlimit="10" x1="1107.055" y1="382.277" x2="1111.025" y2="377.652"/>
	<line fill="none" stroke="#000000" stroke-miterlimit="10" x1="1220.694" y1="383.908" x2="1220.694" y2="370.771"/>
	<line fill="none" stroke="#000000" stroke-miterlimit="10" x1="1160.415" y1="451.519" x2="1188.748" y2="442.277"/>
	<line fill="none" stroke="#000000" stroke-miterlimit="10" x1="1160.415" y1="463.576" x2="1160.369" y2="451.478"/>
	<path fill="none" stroke="#000000" stroke-miterlimit="10" d="M1220.694,370.95c0-6.173-8.983-13.334-19.117-13.334"/>
	<path fill="none" stroke="#000000" stroke-miterlimit="10" d="M1188.014,358.444c0,0,5.272-0.828,13.563-0.828"/>
	<line fill="none" stroke="#000000" stroke-miterlimit="10" x1="1114.555" y1="375.895" x2="1188.014" y2="358.616"/>
	<line fill="none" stroke="#000000" stroke-miterlimit="10" x1="1134.055" y1="358.616" x2="1134.055" y2="365.027"/>
	<line fill="none" stroke="#000000" stroke-miterlimit="10" x1="1134.055" y1="365.027" x2="1137.861" y2="370.412"/>
	<line fill="none" stroke="#000000" stroke-miterlimit="10" x1="1134.055" y1="365.027" x2="1145.143" y2="362.465"/>
	<line fill="none" stroke="#000000" stroke-miterlimit="10" x1="1145.143" y1="362.465" x2="1145.143" y2="356.277"/>
	<line fill="none" stroke="#000000" stroke-miterlimit="10" x1="1145.143" y1="362.465" x2="1150.223" y2="367.546"/>
	<line fill="none" stroke="#000000" stroke-miterlimit="10" x1="1171.814" y1="350.668" x2="1171.814" y2="357.08"/>
	<line fill="none" stroke="#000000" stroke-miterlimit="10" x1="1171.814" y1="357.08" x2="1175.155" y2="361.807"/>
	<line fill="none" stroke="#000000" stroke-miterlimit="10" x1="1171.814" y1="357.08" x2="1182.9" y2="354.518"/>
	<line fill="none" stroke="#000000" stroke-miterlimit="10" x1="1182.9" y1="354.518" x2="1182.9" y2="348.329"/>
	<line fill="none" stroke="#000000" stroke-miterlimit="10" x1="1182.9" y1="354.518" x2="1187.193" y2="358.809"/>
	<path fill="none" stroke="#000000" stroke-miterlimit="10" d="M1100.758,362.465c0,1.416,2.088,2.563,4.668,2.563"/>
	<path fill="none" stroke="#000000" stroke-miterlimit="10" d="M1197.943,430.442c1.867,3.218,14.732,6.085,24.57,6.085"/>
	<path fill="none" stroke="#000000" stroke-miterlimit="10" d="M1249.23,432.277c-4.146,1.88-10.816,4.25-26.717,4.25"/>
</g>
<g>
	<line fill="none" stroke="#000000" stroke-miterlimit="10" x1="437.751" y1="339.845" x2="507.917" y2="317.597"/>
	<line fill="none" stroke="#000000" stroke-miterlimit="10" x1="437.796" y1="351.944" x2="507.917" y2="326.601"/>
	<line fill="none" stroke="#000000" stroke-miterlimit="10" x1="437.796" y1="355.288" x2="515.751" y2="327.845"/>
	<line fill="none" stroke="#000000" stroke-miterlimit="10" x1="475.142" y1="307.546" x2="507.917" y2="317.597"/>
	<line fill="none" stroke="#000000" stroke-miterlimit="10" x1="507.917" y1="317.597" x2="507.917" y2="326.601"/>
	<line fill="none" stroke="#000000" stroke-miterlimit="10" x1="507.917" y1="326.601" x2="515.751" y2="327.845"/>
	<line fill="none" stroke="#000000" stroke-miterlimit="10" x1="515.751" y1="327.845" x2="515.751" y2="364.179"/>
	<line fill="none" stroke="#000000" stroke-miterlimit="10" x1="437.796" y1="391.622" x2="515.751" y2="364.179"/>
	<line fill="none" stroke="#000000" stroke-miterlimit="10" x1="437.796" y1="355.288" x2="437.796" y2="391.622"/>
	<line fill="none" stroke="#000000" stroke-miterlimit="10" x1="437.796" y1="355.288" x2="373.167" y2="327.845"/>
	<line fill="none" stroke="#000000" stroke-miterlimit="10" x1="438.224" y1="351.944" x2="377.921" y2="326.337"/>
	<line fill="none" stroke="#000000" stroke-miterlimit="10" x1="437.796" y1="351.944" x2="437.751" y2="339.845"/>
	<line fill="none" stroke="#000000" stroke-miterlimit="10" x1="437.796" y1="339.845" x2="377.944" y2="314.669"/>
	<line fill="none" stroke="#000000" stroke-miterlimit="10" x1="373.167" y1="327.845" x2="357.917" y2="296.178"/>
	<line fill="none" stroke="#000000" stroke-miterlimit="10" x1="357.917" y1="296.178" x2="357.917" y2="252.678"/>
	<line fill="none" stroke="#000000" stroke-miterlimit="10" x1="373.167" y1="327.845" x2="377.921" y2="326.337"/>
	<line fill="none" stroke="#000000" stroke-miterlimit="10" x1="377.921" y1="326.124" x2="362.671" y2="294.457"/>
	<line fill="none" stroke="#000000" stroke-miterlimit="10" x1="357.917" y1="296.258" x2="362.671" y2="294.75"/>
	<line fill="none" stroke="#000000" stroke-miterlimit="10" x1="362.671" y1="294.75" x2="362.671" y2="251.25"/>
	<line fill="none" stroke="#000000" stroke-miterlimit="10" x1="437.796" y1="391.622" x2="311" y2="337.78"/>
	<line fill="none" stroke="#000000" stroke-miterlimit="10" x1="311" y1="284.178" x2="311" y2="337.78"/>
	<line fill="none" stroke="#000000" stroke-miterlimit="10" x1="311" y1="284.178" x2="324.584" y2="245.845"/>
	<path fill="none" stroke="#000000" stroke-miterlimit="10" d="M324.584,245.845c0-2.396,6.709-4.334,15-4.334"/>
	<path fill="none" stroke="#000000" stroke-miterlimit="10" d="M357.917,252.678c0-6.173-8.2-11.167-18.333-11.167"/>
	<path fill="none" stroke="#000000" stroke-miterlimit="10" d="M362.671,251.429c0-6.173-8.983-13.334-19.117-13.334"/>
	<path fill="none" stroke="#000000" stroke-miterlimit="10" d="M328.554,240.803c1.738-1.938,6.709-2.708,15-2.708"/>
	<line fill="none" stroke="#000000" stroke-miterlimit="10" x1="324.584" y1="245.428" x2="328.554" y2="240.803"/>
	<line fill="none" stroke="#000000" stroke-miterlimit="10" x1="377.944" y1="314.669" x2="405.644" y2="305.667"/>
	<line fill="none" stroke="#000000" stroke-miterlimit="10" x1="377.944" y1="326.728" x2="377.899" y2="314.628"/>
	<line fill="none" stroke="#000000" stroke-miterlimit="10" x1="437.751" y1="247.335" x2="438.224" y2="233.922"/>
	<path fill="none" stroke="#000000" stroke-miterlimit="10" d="M438.224,234.101c0-6.173-8.984-13.334-19.117-13.334"/>
	<path fill="none" stroke="#000000" stroke-miterlimit="10" d="M405.542,221.595c0,0,5.273-0.828,13.564-0.828"/>
	<line fill="none" stroke="#000000" stroke-miterlimit="10" x1="332.084" y1="239.045" x2="405.542" y2="221.767"/>
	<g>
		<g>
			<path d="M437.921,355.289c-0.002-3.156-0.004-6.313-0.006-9.47c-0.004-7.271-0.008-14.542-0.013-21.813
				c-0.005-8.087-0.011-16.175-0.015-24.262c-0.004-5.605-0.008-11.211-0.011-16.816c-0.001-0.842-0.001-1.683-0.001-2.524
				c0-0.162-0.25-0.163-0.25-0.002c0.002,3.157,0.004,6.313,0.006,9.47c0.004,7.271,0.008,14.542,0.013,21.813
				c0.005,8.087,0.011,16.174,0.015,24.261c0.004,5.605,0.008,11.211,0.011,16.816c0.001,0.842,0.001,1.683,0.001,2.524
				C437.671,355.448,437.921,355.45,437.921,355.289L437.921,355.289z"/>
		</g>
	</g>
	<g>
		<g>
			<path d="M435.78,279.666c-2.391-1.008-4.781-2.016-7.172-3.023c-5.898-2.486-11.795-4.972-17.693-7.458
				c-7.49-3.157-14.98-6.314-22.471-9.472c-7.169-3.022-14.339-6.044-21.509-9.066c-4.936-2.081-9.872-4.161-14.808-6.242
				c-1.105-0.466-2.209-0.931-3.314-1.397c-0.146-0.062-0.273,0.154-0.125,0.217c2.391,1.008,4.782,2.016,7.173,3.023
				c5.897,2.486,11.795,4.972,17.692,7.458c7.49,3.157,14.98,6.314,22.47,9.472c7.17,3.022,14.34,6.044,21.51,9.066
				c4.936,2.081,9.872,4.161,14.808,6.242c1.104,0.466,2.21,0.931,3.313,1.397C435.802,279.944,435.929,279.728,435.78,279.666
				L435.78,279.666z"/>
		</g>
	</g>
	<path fill="none" stroke="#000000" stroke-miterlimit="10" d="M350.35,239.239"/>
	<path fill="none" stroke="#000000" stroke-miterlimit="10" d="M435.3,275.311"/>
	<g>
		<g>
			<path d="M512.468,250.207c-2.623-0.862-5.244-1.725-7.867-2.587c-6.349-2.088-12.697-4.175-19.047-6.263
				c-7.799-2.565-15.599-5.13-23.398-7.695c-6.975-2.294-13.949-4.587-20.924-6.881c-3.874-1.274-7.748-2.548-11.621-3.822
				c-0.22-0.072-0.439-0.144-0.658-0.216c-0.153-0.05-0.219,0.191-0.066,0.241c2.623,0.862,5.244,1.725,7.867,2.587
				c6.349,2.088,12.697,4.175,19.047,6.263c7.799,2.565,15.599,5.13,23.398,7.695c6.975,2.294,13.949,4.587,20.924,6.881
				c3.874,1.274,7.748,2.548,11.621,3.822c0.22,0.072,0.439,0.144,0.658,0.216C512.555,250.499,512.62,250.257,512.468,250.207
				L512.468,250.207z"/>
		</g>
	</g>
	<g>
		<g>
			<path d="M513.944,251.135c0.162,0,0.164-0.25,0.002-0.25C513.785,250.885,513.784,251.135,513.944,251.135L513.944,251.135z"/>
		</g>
	</g>
	<g>
		<g>
			<path d="M515.876,327.846c0-3.231,0-6.462,0-9.693c0-7.366,0-14.732,0-22.099c0-8.012,0-16.024,0-24.036
				c0-5.168,0-10.336,0-15.503c0-0.493,0-0.985,0-1.478c0-0.162-0.25-0.163-0.25-0.002c0,3.231,0,6.462,0,9.693
				c0,7.367,0,14.733,0,22.099c0,8.012,0,16.024,0,24.037c0,5.167,0,10.335,0,15.503c0,0.492,0,0.985,0,1.478
				C515.626,328.005,515.876,328.007,515.876,327.846L515.876,327.846z"/>
		</g>
	</g>
	<g>
		<g>
			<path d="M440.96,279.895c2.834-1.026,5.67-2.053,8.504-3.079c6.653-2.409,13.307-4.818,19.959-7.227
				c7.695-2.786,15.389-5.572,23.084-8.358c5.959-2.157,11.918-4.315,17.876-6.473c1.659-0.601,3.319-1.202,4.979-1.803
				c0.15-0.054,0.086-0.296-0.064-0.241c-2.836,1.026-5.67,2.053-8.505,3.079c-6.653,2.409-13.306,4.818-19.96,7.227
				c-7.693,2.786-15.389,5.572-23.082,8.358c-5.959,2.157-11.918,4.315-17.877,6.473c-1.66,0.601-3.319,1.202-4.979,1.803
				C440.745,279.708,440.808,279.95,440.96,279.895L440.96,279.895z"/>
		</g>
	</g>
	<g>
		<g>
			<path d="M515.876,255.037c-0.035-2.284-1.308-4.519-3.703-4.926c-0.157-0.027-0.225,0.214-0.066,0.241
				c2.286,0.389,3.485,2.501,3.52,4.683C515.628,255.196,515.878,255.198,515.876,255.037L515.876,255.037z"/>
		</g>
	</g>
	<path fill="none" stroke="#000000" stroke-miterlimit="10" d="M440.509,275.311"/>
	<g>
		<g>
			<path d="M435.655,279.882c0.709,0.343,1.421,0.626,2.217,0.653c1.043,0.035,2.105-0.341,3.088-0.641
				c0.153-0.047,0.09-0.289-0.064-0.241c-0.939,0.287-1.904,0.6-2.895,0.631c-0.791,0.025-1.522-0.281-2.221-0.619
				C435.636,279.596,435.511,279.812,435.655,279.882L435.655,279.882z"/>
		</g>
	</g>
	<ellipse fill="none" stroke="#000000" stroke-miterlimit="10" cx="440.644" cy="259.108" rx="37.49" ry="11.81"/>
	<line fill="none" stroke="#000000" stroke-miterlimit="10" x1="393.981" y1="276.399" x2="403.292" y2="258.125"/>
	<line fill="none" stroke="#000000" stroke-miterlimit="10" x1="478.134" y1="259.108" x2="484.663" y2="277.615"/>
	<line fill="none" stroke="#000000" stroke-miterlimit="10" x1="415.188" y1="285.409" x2="415.188" y2="294.173"/>
	<line fill="none" stroke="#000000" stroke-miterlimit="10" x1="466.476" y1="286.22" x2="466.476" y2="296.417"/>
	<path fill="none" stroke="#000000" stroke-miterlimit="10" d="M393.981,276.399c3.736,6.436,26.986,11.519,46.662,11.519"/>
	<path fill="none" stroke="#000000" stroke-miterlimit="10" d="M415.188,294.173c0,4.833,11.008,7.661,25.455,7.661"/>
	<path fill="none" stroke="#000000" stroke-miterlimit="10" d="M484.663,277.615c-6.529,7.521-18.982,10.303-44.02,10.303"/>
	<path fill="none" stroke="#000000" stroke-miterlimit="10" d="M466.476,296.417c0,3.592-11.932,5.417-25.832,5.417"/>
	<path fill="none" stroke="#000000" stroke-miterlimit="10" d="M408.134,294.173c0,6.354,14.541,11.494,32.51,11.494"/>
	<path fill="none" stroke="#000000" stroke-miterlimit="10" d="M472.884,294.173c0,7.661-14.42,11.494-32.24,11.494"/>
	<path fill="none" stroke="#000000" stroke-miterlimit="10" d="M408.134,294.173c0-0.556,3.156-3.089,7.055-3.089"/>
	<path fill="none" stroke="#000000" stroke-miterlimit="10" d="M472.884,294.173c0-0.556-2.865-2.089-6.408-2.089"/>
	<line fill="none" stroke="#000000" stroke-miterlimit="10" x1="408.134" y1="294.173" x2="403.175" y2="319.194"/>
	<line fill="none" stroke="#000000" stroke-miterlimit="10" x1="472.884" y1="294.173" x2="477.843" y2="319.194"/>
	<path fill="none" stroke="#000000" stroke-miterlimit="10" d="M403.175,319.194c0,4.836,16.762,10.43,37.861,10.43"/>
	<path fill="none" stroke="#000000" stroke-miterlimit="10" d="M477.843,319.194c0,4.836-16.463,10.43-36.807,10.43"/>
</g>
<g>
	<line fill="none" stroke="#000000" stroke-miterlimit="10" x1="1350.183" y1="243.052" x2="1369.3" y2="344.552"/>
	<line fill="none" stroke="#000000" stroke-miterlimit="10" x1="1369.3" y1="344.552" x2="1364.546" y2="372.324"/>
	<line fill="none" stroke="#000000" stroke-miterlimit="10" x1="1448.28" y1="354.302" x2="1342.583" y2="377.052"/>
	<line fill="none" stroke="#000000" stroke-miterlimit="10" x1="1337.915" y1="374.489" x2="1315.046" y2="277.052"/>
	<line fill="none" stroke="#000000" stroke-miterlimit="10" x1="1350.183" y1="243.052" x2="1324.421" y2="255.052"/>
	<path fill="none" stroke="#000000" stroke-miterlimit="10" d="M1315.046,277.052c0-12.16,4.193-22,9.375-22"/>
	<line fill="none" stroke="#000000" stroke-miterlimit="10" x1="1350.183" y1="243.052" x2="1438.163" y2="231.844"/>
	<line fill="none" stroke="#000000" stroke-miterlimit="10" x1="1445.382" y1="236.137" x2="1462.585" y2="327.469"/>
	<line fill="none" stroke="#000000" stroke-miterlimit="10" x1="1462.585" y1="327.469" x2="1448.28" y2="354.302"/>
	<line fill="none" stroke="#000000" stroke-miterlimit="10" x1="1428.909" y1="258.088" x2="1448.28" y2="354.302"/>
	<path fill="none" stroke="#000000" stroke-miterlimit="10" d="M1448.742,252.552"/>
	<path fill="none" stroke="#000000" stroke-miterlimit="10" d="M1354.546,264.552"/>
	<path fill="none" stroke="#000000" stroke-miterlimit="10" d="M1445.382,236.137c0-2.373-3.229-4.293-7.219-4.293"/>
	<g>
		<path fill="none" stroke="#000000" stroke-miterlimit="10" d="M1472.948,417.833c0.132,0.068,0.266,0.138,0.377,0.249
			c0.57,0.57,0.588,1.553,0,2.121c-0.191,0.186-0.406,0.35-0.637,0.484c-0.942,0.555-1.833-0.029-2.132-0.818
			c-0.064-0.013-0.123-0.01-0.19-0.03c-4.165-1.308-8.556,0.518-12.646-0.714c-1.236-0.373-1.885-1.07-1.998-1.842
			c-18.375,0.761-32.563,5.709-32.563,11.705c0,6.522,16.785,11.81,37.491,11.81c20.705,0,37.49-5.287,37.49-11.81
			C1498.141,423.823,1487.609,419.437,1472.948,417.833z"/>
		<line fill="none" stroke="#000000" stroke-miterlimit="10" x1="1414.672" y1="447.495" x2="1423.299" y2="428.006"/>
		<line fill="none" stroke="#000000" stroke-miterlimit="10" x1="1498.141" y1="428.988" x2="1504.669" y2="447.495"/>
		<path fill="none" stroke="#000000" stroke-miterlimit="10" d="M1414.672,447.495c3.735,6.436,26.985,12.176,46.662,12.176"/>
		<path fill="none" stroke="#000000" stroke-miterlimit="10" d="M1504.669,447.495c-6.528,7.521-18.981,12.176-44.019,12.176"/>
	</g>
	<line fill="none" stroke="#000000" stroke-miterlimit="10" x1="1425.905" y1="454.302" x2="1423.378" y2="467.872"/>
	<line fill="none" stroke="#000000" stroke-miterlimit="10" x1="1495.421" y1="454.229" x2="1498.046" y2="467.872"/>
	<path fill="none" stroke="#000000" stroke-miterlimit="10" d="M1428.909,258.088c0-2.373-3.229-4.293-7.22-4.293"/>
	<line fill="none" stroke="#000000" stroke-miterlimit="10" x1="1354.546" y1="264.552" x2="1421.689" y2="253.795"/>
	<path fill="none" stroke="#000000" stroke-miterlimit="10" d="M1423.378,467.872c0,4.836,16.761,10.43,37.861,10.43"/>
	<path fill="none" stroke="#000000" stroke-miterlimit="10" d="M1498.046,467.872c0,4.836-16.463,10.43-36.807,10.43"/>
	<line fill="none" stroke="#000000" stroke-miterlimit="10" x1="1457.379" y1="488.719" x2="1527.546" y2="466.47"/>
	<line fill="none" stroke="#000000" stroke-miterlimit="10" x1="1457.425" y1="500.817" x2="1527.546" y2="475.475"/>
	<line fill="none" stroke="#000000" stroke-miterlimit="10" x1="1457.425" y1="504.162" x2="1535.379" y2="476.719"/>
	<line fill="none" stroke="#000000" stroke-miterlimit="10" x1="1495.421" y1="455.803" x2="1527.546" y2="466.47"/>
	<line fill="none" stroke="#000000" stroke-miterlimit="10" x1="1527.546" y1="466.47" x2="1527.546" y2="475.475"/>
	<line fill="none" stroke="#000000" stroke-miterlimit="10" x1="1527.546" y1="475.475" x2="1535.379" y2="476.719"/>
	<line fill="none" stroke="#000000" stroke-miterlimit="10" x1="1535.379" y1="476.719" x2="1535.379" y2="513.052"/>
	<line fill="none" stroke="#000000" stroke-miterlimit="10" x1="1457.425" y1="540.495" x2="1535.379" y2="513.052"/>
	<line fill="none" stroke="#000000" stroke-miterlimit="10" x1="1457.425" y1="504.162" x2="1457.425" y2="540.495"/>
	<line fill="none" stroke="#000000" stroke-miterlimit="10" x1="1457.425" y1="504.162" x2="1392.796" y2="476.719"/>
	<line fill="none" stroke="#000000" stroke-miterlimit="10" x1="1457.852" y1="500.817" x2="1397.55" y2="475.211"/>
	<line fill="none" stroke="#000000" stroke-miterlimit="10" x1="1457.425" y1="500.817" x2="1457.379" y2="488.719"/>
	<line fill="none" stroke="#000000" stroke-miterlimit="10" x1="1457.425" y1="488.719" x2="1397.572" y2="463.543"/>
	<line fill="none" stroke="#000000" stroke-miterlimit="10" x1="1392.796" y1="476.719" x2="1377.546" y2="445.052"/>
	<line fill="none" stroke="#000000" stroke-miterlimit="10" x1="1377.546" y1="445.052" x2="1377.546" y2="401.552"/>
	<line fill="none" stroke="#000000" stroke-miterlimit="10" x1="1392.796" y1="476.719" x2="1397.55" y2="475.211"/>
	<line fill="none" stroke="#000000" stroke-miterlimit="10" x1="1397.55" y1="474.997" x2="1382.3" y2="443.33"/>
	<line fill="none" stroke="#000000" stroke-miterlimit="10" x1="1377.546" y1="445.132" x2="1382.3" y2="443.624"/>
	<line fill="none" stroke="#000000" stroke-miterlimit="10" x1="1382.3" y1="443.624" x2="1382.3" y2="400.124"/>
	<line fill="none" stroke="#000000" stroke-miterlimit="10" x1="1457.425" y1="540.495" x2="1330.628" y2="486.654"/>
	<line fill="none" stroke="#000000" stroke-miterlimit="10" x1="1330.628" y1="433.052" x2="1330.628" y2="486.654"/>
	<line fill="none" stroke="#000000" stroke-miterlimit="10" x1="1330.628" y1="433.052" x2="1344.212" y2="394.719"/>
	<path fill="none" stroke="#000000" stroke-miterlimit="10" d="M1344.212,394.719c0-2.396,6.709-4.334,15-4.334"/>
	<path fill="none" stroke="#000000" stroke-miterlimit="10" d="M1377.546,401.552c0-6.173-8.2-11.167-18.334-11.167"/>
	<path fill="none" stroke="#000000" stroke-miterlimit="10" d="M1382.3,400.303c0-6.173-8.984-13.334-19.117-13.334"/>
	<path fill="none" stroke="#000000" stroke-miterlimit="10" d="M1348.183,389.677c1.738-1.938,6.709-2.708,15-2.708"/>
	<line fill="none" stroke="#000000" stroke-miterlimit="10" x1="1344.212" y1="394.302" x2="1348.183" y2="389.677"/>
	<path fill="none" stroke="#000000" stroke-miterlimit="10" d="M1457.852,413.953c0-10.387,0-20.771,0-31.157"/>
	<line fill="none" stroke="#000000" stroke-miterlimit="10" x1="1397.572" y1="463.543" x2="1425.905" y2="454.302"/>
	<line fill="none" stroke="#000000" stroke-miterlimit="10" x1="1397.572" y1="475.601" x2="1397.526" y2="463.502"/>
	<path fill="none" stroke="#000000" stroke-miterlimit="10" d="M1457.852,382.975c0-6.173-8.983-13.334-19.117-13.334"/>
	<path fill="none" stroke="#000000" stroke-miterlimit="10" d="M1425.171,370.469c0,0,5.272-0.828,13.563-0.828"/>
	<line fill="none" stroke="#000000" stroke-miterlimit="10" x1="1351.712" y1="387.919" x2="1425.171" y2="370.641"/>
	<line fill="none" stroke="#000000" stroke-miterlimit="10" x1="1371.212" y1="370.641" x2="1371.212" y2="377.052"/>
	<line fill="none" stroke="#000000" stroke-miterlimit="10" x1="1371.212" y1="377.052" x2="1375.019" y2="382.438"/>
	<line fill="none" stroke="#000000" stroke-miterlimit="10" x1="1371.212" y1="377.052" x2="1382.3" y2="374.489"/>
	<line fill="none" stroke="#000000" stroke-miterlimit="10" x1="1382.3" y1="374.489" x2="1382.3" y2="368.301"/>
	<line fill="none" stroke="#000000" stroke-miterlimit="10" x1="1382.3" y1="374.489" x2="1387.38" y2="379.57"/>
	<line fill="none" stroke="#000000" stroke-miterlimit="10" x1="1408.972" y1="362.693" x2="1408.972" y2="369.104"/>
	<line fill="none" stroke="#000000" stroke-miterlimit="10" x1="1408.972" y1="369.104" x2="1412.313" y2="373.831"/>
	<line fill="none" stroke="#000000" stroke-miterlimit="10" x1="1408.972" y1="369.104" x2="1420.058" y2="366.541"/>
	<line fill="none" stroke="#000000" stroke-miterlimit="10" x1="1420.058" y1="366.541" x2="1420.058" y2="360.354"/>
	<line fill="none" stroke="#000000" stroke-miterlimit="10" x1="1420.058" y1="366.541" x2="1424.351" y2="370.834"/>
	<path fill="none" stroke="#000000" stroke-miterlimit="10" d="M1337.915,374.489c0,1.417,2.088,2.563,4.668,2.563"/>
	<g>
		<g>
			<path fill="#FFFFFF" d="M1464.974,419.127c3.556,0,7.111,0,10.667,0c0.412,0,2.204-0.803,1.248-0.803c-3.556,0-7.111,0-10.667,0
				C1465.81,418.324,1464.018,419.127,1464.974,419.127L1464.974,419.127z"/>
		</g>
	</g>
	<g>
		<g>
			<path fill="#FFFFFF" d="M1478.979,417.363c-4.299-1.724-11.699-1.123-13.851,3.607c-2.271,4.993,11.873,1.258,13.451,0.024
				c0.87-0.681,0.669-1.421-0.423-1.577c-2.999-0.426-5.16,1.145-8.018,1.225c0.464,0.421,0.928,0.842,1.391,1.262
				c0.691-1.125,2.164-1.203,3.284-1.48c-0.199-0.743-0.398-1.486-0.598-2.229c-1.285,0.378-2.595,0.604-3.929,0.679
				c-0.87,0.398-1.155,0.071-0.858-0.984c4.416-1.809,0.428-1.137-0.798-1.227c-2.97-0.215-5.995-0.4-8.825,0.707
				c-1.092,0.428-3.66,2.098-2.099,3.453c1.662,1.442,4.883,0.642,6.656-0.05c0.315-0.123,2.545-1.267,1.545-1.884
				c-4.375-2.697-9.498-3.262-14.437-2.912c-1.708,0.121-5.899,2.924-2.248,2.666c3.676-0.261,8.335,0.264,11.563,2.254
				c0.515-0.628,1.029-1.256,1.545-1.884c1.106-0.431,3.899,0.404,5.303,0.372c1.682-0.04,3.39-0.256,4.997-0.754
				c3.421-1.06,3.804-3.656-0.168-3.697c-2.961-0.03-8.463,1.563-9.555,4.725c-1.371,3.974,10.946,1.006,11.904,0.766
				c3.262-0.819,2.645-3.031-0.598-2.229c-2.723,0.673-6.136,1.28-7.716,3.853c-0.634,1.031,0.537,1.286,1.391,1.262
				c2.198-0.063,4.771-1.566,6.816-1.276c-0.142-0.525-0.282-1.051-0.423-1.576c-0.767,0.6-2.109,0.546-3.042,0.679
				c2.502-0.356,0.398-2.547,3.309-1.379C1475.965,420.322,1480.973,418.162,1478.979,417.363L1478.979,417.363z"/>
		</g>
	</g>
	<g>
		<g>
			<path fill="#FFFFFF" d="M1475.984,420.206c-0.149,0.103-0.347,0.127-0.114,0.085c0.521-0.094,1.058-0.082,1.586-0.084
				c0.983-0.004,1.999,0.185,2.921,0.52c1.119-0.816,2.238-1.635,3.357-2.452c-0.972,0.071-1.941,0.083-2.916,0.083
				c-1.185,0.002-2.829,0.465-3.645,1.385c-0.862,0.972,0.743,1.186,1.371,1.185c0.974-0.001,1.943-0.012,2.916-0.083
				c1.136-0.083,2.338-0.371,3.273-1.055c0.551-0.402,0.933-1.089,0.084-1.398c-3.998-1.455-9.571-1.064-13.107,1.355
				c-0.912,0.624-0.65,1.385,0.401,1.497C1473.428,421.385,1474.902,420.946,1475.984,420.206L1475.984,420.206z"/>
		</g>
	</g>
	<g>
		<g>
			<path fill="#FFFFFF" d="M1454.554,420.523c1.914-0.008,3.688,0.911,5.552,1.254c1.316,0.241,2.875-0.106,3.872-1.038
				c0.826-0.772,0.625-1.848-0.554-2.063c-2.299-0.423-4.401-1.424-6.782-1.414c-1.255,0.006-2.875,0.389-3.605,1.527
				C1452.34,419.873,1453.62,420.527,1454.554,420.523L1454.554,420.523z"/>
		</g>
	</g>
	<g>
		<g>
			<path fill="#FFFFFF" d="M1480.767,419.152c1.37,0.715,1.294,2.659,2.75,3.334c0.838,0.388,1.958,0.124,2.802-0.103
				c0.249-0.066,2.944-0.913,2.518-1.558c-0.056-0.084-0.11-0.167-0.166-0.25c-1.506,0.611-3.013,1.224-4.519,1.835
				c0.542,0.015,0.875,0.882,0.987,1.282c0.14,0.499-0.441,1.296-0.573,1.771c-0.305,1.104,5.023,0.382,5.398-0.977
				c0.295-1.069,0.965-1.83,0.394-2.945c-0.493-0.963-1.654-1.308-2.646-1.334c-0.458-0.013-5.156,0.878-4.519,1.835
				c0.056,0.083,0.111,0.167,0.166,0.25c1.773-0.553,3.547-1.106,5.319-1.66c-1.396-0.646-1.345-2.601-2.75-3.334
				c-0.989-0.516-2.563-0.018-3.521,0.327C1482.233,417.688,1479.893,418.697,1480.767,419.152L1480.767,419.152z"/>
		</g>
	</g>
	<g>
		<g>
			<path fill="#FFFFFF" d="M1484.466,422.69c0.069,0.069,0.128,0.147,0.177,0.232c-0.063-0.104-0.126-0.209-0.188-0.313
				c0.112,0.22,0.179,0.445,0.239,0.684c0.281,1.102,2.371,0.736,3.081,0.546c0.732-0.196,2.677-0.909,2.396-2.013
				c-0.116-0.457-0.292-0.87-0.606-1.231C1488.381,419.234,1483.147,421.175,1484.466,422.69L1484.466,422.69z"/>
		</g>
	</g>
	<g>
		<g>
			<path fill="#FFFFFF" d="M1484.487,422.355c0.052,0.052,0.096,0.11,0.13,0.175c-0.07-0.132-0.141-0.265-0.211-0.396
				c0.082,0.179,0.113,0.351,0.128,0.545c-0.005-0.149-0.01-0.299-0.016-0.448c0.023,0.945-0.149,1.814,0.469,2.625
				c0.777,1.018,2.706,0.635,3.666,0.207c0.854-0.382,2.183-1.426,1.389-2.467c-0.052-0.06-0.096-0.124-0.13-0.195
				c0.07,0.133,0.141,0.265,0.211,0.396c-0.081-0.189-0.113-0.373-0.128-0.578c0.005,0.149,0.01,0.299,0.016,0.449
				c-0.022-0.905,0.178-1.82-0.469-2.572c-0.846-0.982-2.649-0.66-3.666-0.207C1485.081,420.244,1483.627,421.355,1484.487,422.355
				L1484.487,422.355z"/>
		</g>
	</g>
	<g>
		<g>
			<path fill="#FFFFFF" d="M1486.699,423.096c2.147,0.011,4.21,0.15,6.255,0.858c2.212,0.766,1.562,2.885,2.399,4.595
				c0.691,1.41-0.45,1.964,0.897,3.137c1.265,1.101,3.35,1.852,4.819,2.726c1.443,0.858,6.117-1.37,5.137-1.953
				c-1.616-0.96-3.166-1.832-4.819-2.726c-0.556-0.3-0.403-2.082-0.558-2.651c-0.301-1.103-0.564-1.965-0.703-3.13
				c-0.432-3.617-8.806-3.333-11.133-3.346C1487.347,420.597,1483.036,423.075,1486.699,423.096L1486.699,423.096z"/>
		</g>
	</g>
	<g>
		<g>
			<path fill="#FFFFFF" d="M1448.757,415.248c-1.396,0.316-2.948,1.523-2.901,3.097c0.04,1.325,0.755,2.501,2.082,2.906
				c1.328,0.406,2.951,0.049,3.872-1.037c0.803-0.946,0.528-2.3-0.718-2.681c-0.22-0.072-0.129-0.02,0.27,0.16
				c-0.174-0.124-0.114-0.057,0.179,0.201c-0.093-0.088-0.16-0.201-0.223-0.313c0.078,0.16,0.155,0.318,0.232,0.479
				c-0.102-0.211-0.159-0.421-0.181-0.653c0.013,0.177,0.024,0.354,0.037,0.53c-0.008-0.248,0.149-0.667-0.079-0.008
				c0.098-0.206,0.03-0.111-0.201,0.282c-0.119,0.11-0.239,0.221-0.358,0.331c-1.142,0.445-1.474,0.61-0.995,0.494
				c1.092-0.247,2.579-1.325,2.23-2.629C1451.638,415.047,1449.848,415,1448.757,415.248L1448.757,415.248z"/>
		</g>
	</g>
	<g>
		<g>
			<path fill="#FFFFFF" d="M1455.735,416.248c2.226,0,5.765-3.377,2.059-3.377C1455.568,412.871,1452.029,416.248,1455.735,416.248
				L1455.735,416.248z"/>
		</g>
	</g>
	<g>
		<path fill="none" stroke="#000000" stroke-miterlimit="10" d="M1556.563,371.085c-0.086,1.544-7.769,6.157-28.228,10.086"/>
		<path fill="none" stroke="#000000" stroke-miterlimit="10" d="M1493.696,399.646c9.709-7.776,21.725-14.111,33.819-18.318"/>
		<path fill="none" stroke="#000000" stroke-miterlimit="10" d="M1450.725,414.49c0.035,0.181,6.798-0.967,15.122-2.564"/>
		<path fill="none" stroke="#000000" stroke-miterlimit="10" d="M1465.847,411.926c4.356-1.176,22.343-6.497,27.85-12.279"/>
		<path fill="none" stroke="#000000" stroke-miterlimit="10" d="M1448.96,422.975c-1.899-3.708-3.201-8.719,1.765-8.484"/>
		<path fill="none" stroke="#000000" stroke-miterlimit="10" d="M1448.96,422.975c4.563,6.082,16.619,14.98,43.064,1.782"/>
		<path fill="none" stroke="#000000" stroke-miterlimit="10" d="M1489.184,415.251c3.205,16.694,16.069,26.02,22.614,20.058"/>
		<path fill="none" stroke="#000000" stroke-miterlimit="10" d="M1503.738,423.656c5.79,12.042,14.682,22.554,28.562,17.936"/>
		<path fill="none" stroke="#000000" stroke-miterlimit="10" d="M1537.537,422.909c1.81,9.424-1.763,17.337-5.237,18.683"/>
		<path fill="none" stroke="#000000" stroke-miterlimit="10" d="M1524.626,422.843c2.525,1.663,15.41,0.717,20.089-1.879"/>
		<path fill="none" stroke="#000000" stroke-miterlimit="10" d="M1561.234,398.614c0.515,5.438-5.451,17.679-16.52,22.35"/>
		<path fill="none" stroke="#000000" stroke-miterlimit="10" d="M1561.241,401.413c7.188-2.78,10.828-4.37,18.186-7.819"/>
		<path fill="none" stroke="#000000" stroke-miterlimit="10" d="M1531.485,428.511c-0.563-2.933-1.752-5.165-2.656-4.991"/>
		<path fill="none" stroke="#000000" stroke-miterlimit="10" d="M1550.372,374.861c-0.481-2.51,0.556-4.816,2.32-5.154"/>
		<path fill="none" stroke="#000000" stroke-miterlimit="10" d="M1567.855,398.79c6.389,10.294,21.199,21.084,22.707,16.34"/>
		<path fill="none" stroke="#000000" stroke-miterlimit="10" d="M1590.563,415.13c2.193-11.113-32.563-46.951-37.87-45.423"/>
		<path fill="none" stroke="#000000" stroke-miterlimit="10" d="M1549.025,375.655c-6.733-8.406-2.479-13.424,1.922-15.032"/>
		<path fill="none" stroke="#000000" stroke-miterlimit="10" d="M1597.441,403.891c-11.809-21.723-29.785-45.076-46.494-43.268"/>
		<path fill="none" stroke="#000000" stroke-miterlimit="10" d="M1566.183,399.463c2.489,3.578,13.787,23.473,30.044,21.962"/>
		<path fill="none" stroke="#000000" stroke-miterlimit="10" d="M1597.441,403.891c5.871,12.017,1.228,17.064-1.215,17.534"/>
	</g>
	<path fill="none" stroke="#000000" stroke-miterlimit="10" d="M1450.725,414.49c-0.377,6.75,8.54,8.069,18.116,8.069"/>
	<path fill="none" stroke="#000000" stroke-miterlimit="10" d="M1466.794,411.664c4.193,6.553,2.925,10.12,2.047,10.896"/>
</g>
</svg>
